<svg width="513" height="513" viewBox="0 0 513 513" fill="none" xmlns="http://www.w3.org/2000/svg">
<path d="M112 90.1487C104.096 82.2437 106.479 68.8317 116.568 64.4377C132.684 57.4177 146.647 77.7367 134.236 90.1487C127.749 96.6347 118.487 96.6347 112 90.1487Z" fill="#523ce6"/>
<path d="M160 90.1487C152.096 82.2437 154.479 68.8317 164.568 64.4377C180.684 57.4177 194.647 77.7367 182.236 90.1487C175.749 96.6347 166.487 96.6347 160 90.1487Z" fill="#523ce6"/>
<path d="M64 90.1487C56.096 82.2437 58.4789 68.8317 68.5679 64.4377C84.6839 57.4177 98.6469 77.7367 86.2359 90.1487C79.7489 96.6347 70.487 96.6347 64 90.1487Z" fill="#523ce6"/>
<path fill-rule="evenodd" clip-rule="evenodd" d="M36.312 1.70902C19.409 6.25402 6.151 19.701 1.692 36.821C-0.564 45.48 -0.564 466.776 1.692 475.435C6.209 492.776 19.494 506.104 36.742 510.597C41.931 511.949 67.644 512.128 256.2 512.128C489.186 512.128 474.647 512.482 486.413 506.52C493.463 502.948 502.316 494.263 506.05 487.257C512.638 474.899 512.2 491.342 512.2 256.128C512.2 67.572 512.021 41.859 510.669 36.67C506.176 19.422 492.848 6.13702 475.507 1.62002C466.998 -0.596978 44.566 -0.510978 36.312 1.70902ZM472.815 34.69C474.334 35.824 476.504 37.994 477.638 39.512C479.635 42.185 479.709 43.631 479.981 85.2L480.262 128.128H256.231H32.2V86.693C32.2 59.771 32.574 44.272 33.267 42.443C34.685 38.698 38.021 35.176 41.7 33.536C44.179 32.431 81.661 32.236 257.377 32.413L470.053 32.628L472.815 34.69ZM479.959 315.055C479.7 469.77 479.697 469.985 477.638 472.743C476.504 474.262 474.334 476.432 472.815 477.566L470.053 479.628H256.2H42.347L39.585 477.566C38.066 476.432 35.896 474.262 34.762 472.743C32.703 469.985 32.7 469.77 32.441 315.055L32.181 160.128H256.2H480.219L479.959 315.055Z" fill="#523ce6"/>
<path fill-rule="evenodd" clip-rule="evenodd" d="M89.235 190.175C85.211 191.942 81.009 197.048 80.277 201.058C79.954 202.83 79.824 223.709 79.987 247.457C80.276 289.265 80.35 290.722 82.347 293.395C83.481 294.913 85.651 297.083 87.17 298.217C89.898 300.254 90.793 300.279 159.785 300.279C228.777 300.279 229.672 300.254 232.4 298.217C233.919 297.083 236.089 294.913 237.223 293.394C239.235 290.699 239.285 289.531 239.285 244.779C239.285 200.027 239.235 198.859 237.223 196.164C236.089 194.645 233.919 192.475 232.4 191.341C229.682 189.31 228.591 189.276 160.962 189.057C105.394 188.878 91.703 189.091 89.235 190.175ZM281.235 190.175C277.211 191.942 273.009 197.048 272.277 201.058C271.954 202.83 271.824 223.709 271.987 247.457C272.276 289.265 272.35 290.722 274.347 293.395C275.481 294.913 277.651 297.083 279.17 298.217C281.898 300.254 282.793 300.279 351.785 300.279C420.777 300.279 421.672 300.254 424.4 298.217C425.919 297.083 428.089 294.913 429.223 293.394C431.235 290.699 431.285 289.531 431.285 244.779C431.285 200.027 431.235 198.859 429.223 196.164C428.089 194.645 425.919 192.475 424.4 191.341C421.682 189.31 420.591 189.276 352.962 189.057C297.394 188.878 283.703 189.091 281.235 190.175ZM148.307 222.529C146.238 227.757 143.785 239.828 143.785 244.779C143.785 249.73 146.238 261.801 148.307 267.029C148.951 268.658 147.71 268.779 130.392 268.779H111.785V244.779V220.779H130.392C147.71 220.779 148.951 220.9 148.307 222.529ZM207.785 244.779V268.779H202.151C199.052 268.779 194.665 268.232 192.401 267.563C186.908 265.94 178.624 257.656 177.001 252.163C174.232 242.79 176.184 235.317 183.251 228.234C188.973 222.5 192.637 221.026 201.535 220.881L207.785 220.779V244.779ZM399.785 235.782V250.786L370.535 236.171C354.448 228.133 341.098 221.382 340.868 221.168C340.639 220.954 353.802 220.779 370.118 220.779H399.785V235.782ZM362.702 268.39C362.931 268.604 349.768 268.779 333.452 268.779H303.785V253.776V238.772L333.035 253.387C349.122 261.425 362.472 268.176 362.702 268.39ZM89.235 334.175C85.211 335.942 81.009 341.048 80.277 345.058C79.954 346.83 79.824 367.709 79.987 391.457C80.276 433.265 80.35 434.722 82.347 437.395C83.481 438.913 85.651 441.083 87.17 442.217C89.898 444.254 90.793 444.279 159.785 444.279C228.777 444.279 229.672 444.254 232.4 442.217C233.919 441.083 236.089 438.913 237.223 437.394C239.235 434.699 239.285 433.531 239.285 388.779C239.285 344.027 239.235 342.859 237.223 340.164C236.089 338.645 233.919 336.475 232.4 335.341C229.682 333.31 228.591 333.276 160.962 333.057C105.394 332.878 91.703 333.091 89.235 334.175ZM281.235 334.175C277.211 335.942 273.009 341.048 272.277 345.058C271.954 346.83 271.824 367.709 271.987 391.457C272.276 433.265 272.35 434.722 274.347 437.395C275.481 438.913 277.651 441.083 279.17 442.217C281.898 444.254 282.793 444.279 351.785 444.279C420.777 444.279 421.672 444.254 424.4 442.217C425.919 441.083 428.089 438.913 429.223 437.394C431.235 434.699 431.285 433.531 431.285 388.779C431.285 344.027 431.235 342.859 429.223 340.164C428.089 338.645 425.919 336.475 424.4 335.341C421.682 333.31 420.591 333.276 352.962 333.057C297.394 332.878 283.703 333.091 281.235 334.175ZM136.785 365.044C136.785 365.19 131.16 370.921 124.285 377.779L111.785 390.249V377.514V364.779H124.285C131.16 364.779 136.785 364.898 136.785 365.044ZM207.785 377.279C207.785 384.154 207.666 389.779 207.52 389.779C207.374 389.779 201.643 384.154 194.785 377.279L182.315 364.779H195.05H207.785V377.279ZM399.785 388.779V412.779H351.785H303.785V388.779V364.779H351.785H399.785V388.779ZM172.785 400.279L185.255 412.779H159.785H134.315L146.785 400.279C153.643 393.404 159.493 387.779 159.785 387.779C160.077 387.779 165.927 393.404 172.785 400.279Z" fill="#523ce6"/>
</svg>
