<svg width="27" height="27" viewBox="0 0 27 27" fill="none" xmlns="http://www.w3.org/2000/svg">
<path fill-rule="evenodd" clip-rule="evenodd" d="M12.2175 0.0327815C7.99133 0.472182 4.29082 2.77 2.04083 6.35189C-0.528539 10.4422 -0.683583 15.7433 1.64245 19.9759C2.26141 21.1023 2.98277 22.064 3.9144 23.0049C5.04191 24.1438 6.1298 24.926 7.56982 25.6334C8.94246 26.3076 10.2572 26.7074 11.8473 26.9338C12.4746 27.0232 14.5492 27.0217 15.2006 26.9315C18.4847 26.4766 21.2646 25.0256 23.5022 22.5985C25.3459 20.5987 26.524 18.0474 26.9337 15.1676C27.0221 14.546 27.0221 12.4604 26.9337 11.8388C26.4951 8.75591 25.2417 6.16928 23.1598 4.05074C21.0273 1.88069 18.4096 0.551598 15.3854 0.103584C14.7376 0.00757776 12.8627 -0.0342699 12.2175 0.0327815ZM15.1214 2.56277C16.3581 2.74702 17.3583 3.06341 18.4747 3.6236C20.651 4.71566 22.3313 6.41688 23.4341 8.64485C24.2028 10.1979 24.5456 11.6964 24.5456 13.5032C24.5456 15.3042 24.2003 16.8134 23.4341 18.3615C22.3093 20.634 20.6374 22.3067 18.3663 23.4322C16.8141 24.2014 15.3165 24.5444 13.5107 24.5444C11.7175 24.5444 10.2474 24.2084 8.67182 23.4383C6.10572 22.1841 4.12975 20.01 3.14135 17.3532C2.24208 14.936 2.24235 12.0624 3.14203 9.65321C4.40103 6.28193 7.27758 3.67998 10.7224 2.79637C12.073 2.44996 13.7617 2.3603 15.1214 2.56277Z" fill="#593FE9"/>
<path fill-rule="evenodd" clip-rule="evenodd" d="M13.1177 4.96626C12.8352 5.07125 12.6689 5.20229 12.4809 5.46791C12.3248 5.68861 12.3222 5.70367 12.2961 6.5197L12.2697 7.34757L11.8873 7.38572C11.0469 7.46962 10.2823 7.84509 9.64648 8.48623C8.57067 9.57089 8.2975 11.2448 8.96995 12.6314C9.33861 13.3915 9.85634 13.9236 10.6168 14.3238C11.0263 14.5394 11.6723 14.7185 12.0405 14.7185H12.2961V15.9602V17.2019H10.9688C9.43123 17.2019 9.31447 17.2234 8.96774 17.5702C8.50054 18.0377 8.47081 18.7054 8.89507 19.2014C9.23743 19.6015 9.24297 19.6028 10.8439 19.6324L12.2697 19.6588L12.2961 20.4867C12.3222 21.3048 12.3244 21.3173 12.4829 21.5427C13.0372 22.3311 14.0696 22.2896 14.5995 21.4577C14.6822 21.3279 14.7033 21.164 14.7253 20.4802L14.7517 19.6588L15.105 19.6238C16.6944 19.4666 18.0153 18.2774 18.3382 16.7129C18.7378 14.7775 17.5514 12.8803 15.635 12.3899C15.4158 12.3338 15.1214 12.2879 14.9809 12.2879H14.7253V11.0462V9.80453H16.0526C17.5902 9.80453 17.7069 9.78303 18.0537 9.43615C18.5209 8.96864 18.5471 8.29691 18.1176 7.79489C17.785 7.40616 17.7731 7.40358 16.1775 7.37399L14.7517 7.34757L14.7253 6.52615C14.6974 5.65982 14.679 5.59102 14.3883 5.26855C14.1109 4.96098 13.5141 4.819 13.1177 4.96626ZM12.2961 11.0486V12.2927L12.0981 12.2567C11.484 12.1453 11.0755 11.6657 11.0705 11.0506C11.0661 10.4846 11.4143 10.0258 11.979 9.85389C12.3148 9.7517 12.2961 9.68121 12.2961 11.0486ZM15.3062 14.8793C15.7086 15.0833 15.9474 15.4858 15.9474 15.9602C15.9474 16.5764 15.5386 17.0609 14.9208 17.1769L14.7253 17.2136V15.9637V14.7137L14.9233 14.7496C15.0323 14.7694 15.2045 14.8277 15.3062 14.8793Z" fill="#593FE9" stroke="#F0EEFD"/>
</svg>
