<svg width="38" height="38" viewBox="0 0 38 38" fill="none" xmlns="http://www.w3.org/2000/svg">
<path fill-rule="evenodd" clip-rule="evenodd" d="M6.54175 0.0483162C6.4302 0.0828945 6.21584 0.174968 6.06538 0.25287L5.79172 0.394504L6.47267 0.730974C7.3493 1.16413 7.83893 1.52814 8.54245 2.2695C9.35792 3.12894 9.87805 4.0764 10.194 5.27797C10.3362 5.81908 10.343 6.53818 10.3429 21.1143C10.3426 34.2607 10.359 36.4383 10.4606 36.7762C10.7722 37.8126 11.991 38.3119 12.9168 37.7825C13.0637 37.6985 14.2896 36.6821 15.6408 35.524C16.9921 34.3659 18.119 33.4184 18.145 33.4184C18.1711 33.4184 19.3296 34.3942 20.7194 35.5868C22.1092 36.7793 23.3738 37.8088 23.5295 37.8744C23.9184 38.0382 24.5573 38.0161 24.9194 37.8261C25.0832 37.7401 26.3177 36.7264 27.6627 35.5734C29.0078 34.4203 30.1535 33.4729 30.2089 33.4679C30.2642 33.4629 31.392 34.3881 32.7152 35.5238C34.0383 36.6596 35.2469 37.6673 35.4009 37.7632C36.3577 38.3588 37.682 37.7737 37.9251 36.648C37.9953 36.3228 38.0123 32.368 37.992 21.069L37.9648 5.92581L37.7865 5.25967C37.105 2.71489 35.2695 0.877547 32.729 0.197076L32.0636 0.0189206L19.404 0.0021579C12.4413 -0.00699279 6.65322 0.0138189 6.54175 0.0483162ZM2.35318 3.2807C1.17086 3.70179 0.309039 4.70318 0.0742105 5.92848C0.00820275 6.27329 -0.0113731 8.27835 0.00601864 12.9305C0.0303671 19.4264 0.0310951 19.4505 0.204608 19.7733C0.423178 20.1799 0.676935 20.4189 1.06036 20.5792C1.31113 20.6842 1.81508 20.7046 4.15334 20.7046H6.9467V13.5014C6.9467 8.47294 6.91919 6.16867 6.85569 5.86904C6.63421 4.82489 5.92617 3.92367 4.94891 3.44209C4.46283 3.20247 4.32548 3.17307 3.59438 3.15194C2.95873 3.13356 2.68726 3.16174 2.35318 3.2807ZM30.271 7.18099C30.4353 7.29234 30.6693 7.52613 30.7909 7.70048C30.9851 7.9788 31.012 8.09315 31.012 8.63863C31.012 9.1841 30.9851 9.29845 30.7909 9.57677C30.6693 9.75112 30.4353 9.98491 30.271 10.0963L29.9723 10.2987H24.1767H18.381L18.0823 10.0963C17.918 9.98491 17.684 9.75112 17.5625 9.57677C17.3677 9.2978 17.3413 9.18467 17.3413 8.63231C17.3413 8.06561 17.3648 7.97127 17.584 7.65983C17.7174 7.47009 17.9884 7.22942 18.1861 7.12488L18.5456 6.9349L24.259 6.95676L29.9724 6.97855L30.271 7.18099ZM30.042 13.9723C31.3233 14.5551 31.392 16.368 30.1591 17.0605L29.7986 17.2629H24.1767C18.5759 17.2629 18.5535 17.2623 18.2311 17.0886C17.6076 16.7527 17.3008 16.2359 17.3008 15.5212C17.3008 15.0562 17.4908 14.6224 17.8394 14.2914C18.3439 13.8125 18.1358 13.8278 24.1767 13.8263C29.3653 13.825 29.7384 13.8343 30.042 13.9723ZM30.1222 20.9194C30.733 21.2484 31.0525 21.7725 31.0525 22.4456C31.0525 23.1353 30.6645 23.7443 30.0413 24.0332C29.7365 24.1745 29.398 24.1832 24.1943 24.1849C19.381 24.1865 18.6322 24.1705 18.3701 24.0609C17.7258 23.7915 17.3008 23.1659 17.3008 22.4868C17.3008 21.6375 17.7538 21.0397 18.5946 20.7792C18.7061 20.7446 21.2726 20.7228 24.298 20.7307C29.761 20.745 29.8008 20.7463 30.1222 20.9194Z" fill="#593FE9"/>
</svg>
