<svg width="29" height="26" viewBox="0 0 29 26" fill="none" xmlns="http://www.w3.org/2000/svg">
<path fill-rule="evenodd" clip-rule="evenodd" d="M14.6715 0.0986746C14.3032 0.32707 14.3203 0.0260063 14.3203 6.2584V11.9188L14.4491 12.1076C14.7293 12.5184 14.2969 12.4931 20.7688 12.4772C26.5613 12.463 26.5651 12.463 26.7251 12.3461C26.8132 12.2818 26.9347 12.1465 26.9951 12.0455C27.0978 11.8737 27.1007 11.8204 27.0391 11.218C26.8361 9.23381 26.1508 7.32659 25.0309 5.62949C23.865 3.86255 21.9675 2.2049 20.0214 1.25309C18.6704 0.592355 16.8202 0.0881743 15.481 0.0157834C14.9136 -0.0148841 14.8428 -0.00760605 14.6715 0.0986746ZM11.6542 0.974532C11.092 1.01898 9.9984 1.21954 9.31535 1.40349C4.84831 2.60646 1.29666 6.2749 0.285279 10.7306C0.0561608 11.74 -0.000338834 12.2869 1.52547e-06 13.4908C0.000568791 15.5801 0.372014 17.1548 1.30556 19.0257C2.33651 21.0918 4.02799 22.9151 6.06543 24.1565C9.88075 26.4813 14.878 26.6178 18.8585 24.5062C19.788 24.013 21.1493 23.0446 21.3682 22.7207C21.5275 22.4851 21.4993 22.1046 21.3034 21.8466C21.213 21.7274 19.2968 19.8299 17.0453 17.6298C14.7937 15.4298 12.9149 13.5622 12.8702 13.4797C12.8009 13.3521 12.7886 12.4546 12.7875 7.47954C12.7863 1.80533 12.7829 1.62222 12.6759 1.39138C12.5918 1.2097 12.5082 1.12781 12.3227 1.04537C12.189 0.985976 12.0413 0.941197 11.9946 0.945864C11.9478 0.950531 11.7946 0.96342 11.6542 0.974532ZM17.809 14.2105C17.6241 14.2854 17.4341 14.5215 17.3842 14.7382C17.2789 15.1955 17.1989 15.1045 20.9201 18.759C22.8281 20.6329 24.5124 22.268 24.6628 22.3927C24.8795 22.5722 24.9916 22.6237 25.2017 22.6408C25.5521 22.6693 25.6801 22.5948 26.0797 22.1294C27.6883 20.2562 28.6717 17.95 28.9602 15.3744C29.0192 14.8473 29.0159 14.7645 28.9282 14.5836C28.8743 14.4725 28.747 14.3311 28.6453 14.2695C28.4631 14.1592 28.3781 14.1576 23.1914 14.161C20.2935 14.1629 17.8714 14.1852 17.809 14.2105Z" fill="#593FE9"/>
</svg>
