<svg xmlns="http://www.w3.org/2000/svg" width="38.26" height="38.26" viewBox="0 0 38.26 38.26">
  <g id="Group_22" data-name="Group 22" transform="translate(8870.2 -16186.8)">
    <g id="Settings_Icon" data-name="Settings Icon" transform="translate(-8870 16187)">
      <g id="icon_nav_admin" data-name="icon/nav/admin">
        <g id="Fill_46" data-name="Fill 46" transform="translate(0)" fill="#583fe9" stroke-miterlimit="10">
          <path d="M 21.60000038146973 37.96030044555664 L 21.59928131103516 37.96030044555664 L 16.98030090332031 37.96030044555664 C 16.5068416595459 37.96030044555664 16.08752059936523 37.65798950195312 15.93687057495117 37.20804977416992 L 14.64025115966797 33.32083892822266 C 13.65170669555664 33.02710723876953 12.69181728363037 32.62953948974609 11.78534698486328 32.13837814331055 L 8.122220993041992 33.96994018554688 C 7.970180988311768 34.04595947265625 7.800180912017822 34.08613967895508 7.630610942840576 34.08613967895508 C 7.336911201477051 34.08616256713867 7.060740947723389 33.97175979614258 6.852991104125977 33.76401138305664 L 4.095400810241699 31.00732040405273 C 3.759751081466675 30.67267036437988 3.676950931549072 30.16220092773438 3.889461040496826 29.73718070983887 L 5.721020221710205 26.07406234741211 C 5.232390403747559 25.17230224609375 4.83480978012085 24.21208763122559 4.538625240325928 23.21828460693359 L 0.6523709893226624 21.92257118225098 C 0.2023809850215912 21.77289009094238 -0.09999901056289673 21.35355186462402 -0.09999901056289673 20.87910079956055 L -0.09999901056289673 16.981201171875 C -0.09999901056289673 16.50721168518066 0.2023109793663025 16.08752059936523 0.6522510051727295 15.93687057495117 L 4.538626670837402 14.64201164245605 C 4.83480167388916 13.64824676513672 5.232366561889648 12.6880464553833 5.721014976501465 11.78625011444092 L 3.888561010360718 8.122230529785156 C 3.677041053771973 7.697210788726807 3.760231018066406 7.18717098236084 4.0954909324646 6.852890968322754 L 6.852080821990967 4.095400810241699 C 7.059970855712891 3.887511014938354 7.336191177368164 3.77302098274231 7.6298508644104 3.77302098274231 C 7.79961109161377 3.77302098274231 7.969871044158936 3.813281059265137 8.122220993041992 3.889461040496826 L 11.78538227081299 5.721041679382324 C 12.69185066223145 5.230733394622803 13.65178680419922 4.833151817321777 14.64023685455322 4.538607597351074 L 15.93684101104736 0.6523509621620178 C 16.08752059936523 0.2023109793663025 16.5068416595459 -0.09999901056289673 16.98030090332031 -0.09999901056289673 L 20.87910079956055 -0.09999901056289673 C 21.35355186462402 -0.09999901056289673 21.77289009094238 0.2023809850215912 21.9225902557373 0.6524409651756287 L 23.21917152404785 4.538625717163086 C 24.20987892150879 4.834064483642578 25.17011833190918 5.231656074523926 26.07490921020508 5.721035957336426 L 29.7371711730957 3.889461040496826 C 29.88953018188477 3.813281059265137 30.05987167358398 3.77302098274231 30.22979164123535 3.77302098274231 C 30.52391052246094 3.77302098274231 30.80008125305176 3.887541055679321 31.00742149353027 4.0954909324646 L 33.76491165161133 6.852991104125977 C 34.10009002685547 7.188150882720947 34.18284225463867 7.698221206665039 33.97084045410156 8.122220993041992 L 32.13840484619141 11.78621387481689 C 32.62790298461914 12.68801212310791 33.02549362182617 13.64830207824707 33.32083129882812 14.64202976226807 L 37.20790100097656 15.93683052062988 C 37.65798950195312 16.08752059936523 37.96030044555664 16.50721168518066 37.96030044555664 16.981201171875 L 37.96030044555664 20.87910079956055 C 37.96030044555664 21.35355186462402 37.65792083740234 21.77289009094238 37.20786285400391 21.9225902557373 L 33.32083129882812 23.2182674407959 C 33.02550506591797 24.21196556091309 32.62790679931641 25.17226982116699 32.13840866088867 26.0740966796875 L 33.97083282470703 29.73716163635254 C 34.18302154541016 30.16154098510742 34.10026931762695 30.67197036743164 33.76491165161133 31.00731086730957 L 31.00730133056641 33.76402282714844 C 30.79958152770996 33.97174072265625 30.52328109741211 34.08613967895508 30.22929191589355 34.08613967895508 C 30.05965042114258 34.08615112304688 29.8897705078125 34.04595947265625 29.73800086975098 33.96990203857422 L 26.07495498657227 32.13837814331055 C 25.17006874084473 32.62865447998047 24.20984840393066 33.0262451171875 23.21915626525879 33.32082366943359 L 21.69509124755859 37.89125061035156 L 21.67230033874512 37.95962142944336 L 21.60000038146973 37.96030044555664 Z M 17.67245864868164 35.90000152587891 L 20.18782615661621 35.90000152587891 L 21.59873008728027 31.66817092895508 L 21.6159610748291 31.61650085449219 L 21.66872024536133 31.60294151306152 L 22.15922164916992 31.4769401550293 C 23.3454418182373 31.17209053039551 24.47611045837402 30.70397186279297 25.51983070373535 30.0855712890625 L 25.95650100708008 29.82806015014648 L 26.00337028503418 29.80043029785156 L 26.05203056335449 29.82476043701172 L 30.04026222229004 31.8193187713623 L 31.81930923461914 30.0402717590332 L 29.82387161254883 26.05205154418945 L 29.79950141906738 26.00334167480469 L 29.82719039916992 25.95645141601562 L 30.08549118041992 25.51905059814453 C 30.70406150817871 24.47472190856934 31.1724910736084 23.34403038024902 31.47786140441895 22.15826034545898 L 31.60290145874023 21.66799163818359 L 31.61639022827148 21.61509132385254 L 31.66819190979004 21.59783172607422 L 35.90000152587891 20.18781852722168 L 35.90000152587891 17.67247581481934 L 31.66817092895508 16.26157188415527 L 31.61642074584961 16.24431037902832 L 31.6029109954834 16.19146156311035 L 31.47781181335449 15.70186138153076 C 31.1724910736084 14.51627063751221 30.70406150817871 13.38558101654053 30.08556175231934 12.3413610458374 L 29.82719039916992 11.90385055541992 L 29.79950141906738 11.85696125030518 L 29.82387161254883 11.80825138092041 L 31.81930923461914 7.820030212402344 L 30.04026222229004 6.040982246398926 L 26.05203056335449 8.035540580749512 L 26.00328063964844 8.059921264648438 L 25.95637130737305 8.032160758972168 L 25.51987075805664 7.773860931396484 C 24.47347068786621 7.154760837554932 23.34278106689453 6.686621189117432 22.15921020507812 6.382451057434082 L 21.66872024536133 6.256461143493652 L 21.61597061157227 6.242900848388672 L 21.59874153137207 6.191230773925781 L 20.18784141540527 1.960301041603088 L 17.67245292663574 1.960301041603088 L 16.26066017150879 6.191250801086426 L 16.24343109130859 6.242880821228027 L 16.19072151184082 6.256441116333008 L 15.70112133026123 6.38244104385376 C 14.51875114440918 6.686070919036865 13.38774108886719 7.154221057891846 12.33949089050293 7.773880958557129 L 11.90400123596191 8.032111167907715 L 11.85707092285156 8.059941291809082 L 11.80827140808105 8.035540580749512 L 7.820039749145508 6.040982246398926 L 6.04099178314209 7.820030212402344 L 8.036431312561035 11.80825138092041 L 8.060840606689453 11.85705089569092 L 8.03303050994873 11.90398120880127 L 7.773830890655518 12.34138107299805 C 7.156240940093994 13.38557052612305 6.687790870666504 14.51630115509033 6.381520748138428 15.70211124420166 L 6.25554084777832 16.19162178039551 L 6.241981029510498 16.24434089660645 L 6.190340995788574 16.26156044006348 L 1.960301041603088 17.67246055603027 L 1.960301041603088 20.18782424926758 L 6.19032096862793 21.59783172607422 L 6.242001056671143 21.61506080627441 L 6.255560874938965 21.66782188415527 L 6.381560802459717 22.15832138061523 C 6.687790870666504 23.34400177001953 7.156240940093994 24.4747314453125 7.773870944976807 25.51899147033691 L 8.03303050994873 25.95632171630859 L 8.060840606689453 26.00325012207031 L 8.036431312561035 26.05205154418945 L 6.04099178314209 30.0402717590332 L 7.820039749145508 31.8193187713623 L 11.80778121948242 29.82501029968262 L 11.8567008972168 29.80055046081543 L 11.9041805267334 29.82829093933105 L 11.90465068817139 29.82857131958008 L 12.33947086334229 30.08551025390625 C 13.38510131835938 30.70451164245605 14.51609134674072 31.17264175415039 15.70107078552246 31.4769401550293 L 16.19072151184082 31.60296058654785 L 16.24344062805176 31.61652183532715 L 16.26066017150879 31.66815185546875 L 17.67245864868164 35.90000152587891 Z" stroke="none"/>
          <path d="M 21.60000038146973 37.86030197143555 L 21.6002311706543 37.859619140625 L 23.14080047607422 33.23970031738281 C 24.15855026245117 32.94095230102539 25.14540100097656 32.5324592590332 26.07300186157227 32.02560043334961 L 29.78280067443848 33.88050079345703 C 29.92073059082031 33.94961929321289 30.07512092590332 33.98615264892578 30.22929191589355 33.98614120483398 C 30.4965705871582 33.98614120483398 30.74776077270508 33.88214111328125 30.93660163879395 33.69330215454102 L 33.6942024230957 30.93660163879395 C 33.99906921386719 30.63174057006836 34.07430267333984 30.16770172119141 33.88140106201172 29.78190040588379 L 32.02560043334961 26.07210159301758 C 32.53115081787109 25.1486701965332 32.93984985351562 24.16191101074219 33.23970031738281 23.13990020751953 L 37.17630004882812 21.82770156860352 C 37.58542251586914 21.69162178039551 37.86030197143555 21.31041145324707 37.86030197143555 20.87910079956055 L 37.86030197143555 16.981201171875 C 37.86030197143555 16.55025100708008 37.58542251586914 16.16868019104004 37.17630004882812 16.03170013427734 L 33.23970031738281 14.7204008102417 C 32.94015121459961 13.69942092895508 32.53166961669922 12.712571144104 32.02560043334961 11.78820133209229 L 33.88140106201172 8.07750129699707 C 34.07411956787109 7.692060947418213 33.9988899230957 7.228381156921387 33.6942024230957 6.92370080947876 L 30.93660163879395 4.166100978851318 C 30.74817085266113 3.977111101150513 30.49715042114258 3.873020887374878 30.22979164123535 3.873020887374878 C 30.07532119750977 3.873020887374878 29.92044067382812 3.909631013870239 29.78190040588379 3.978900909423828 L 26.07300186157227 5.833800792694092 C 25.14640045166016 5.328381061553955 24.15964126586914 4.919681072235107 23.14080047607422 4.619700908660889 L 21.82770156860352 0.6840009689331055 C 21.69162178039551 0.274880975484848 21.31041145324707 9.857177474259515e-07 20.87910079956055 9.857177474259515e-07 L 16.98030090332031 9.857177474259515e-07 C 16.54989051818848 9.857177474259515e-07 16.16868019104004 0.274880975484848 16.03170013427734 0.6840009689331055 L 14.71860122680664 4.619700908660889 C 13.70318126678467 4.918400764465332 12.71664142608643 5.32689094543457 11.7873010635376 5.833800792694092 L 8.07750129699707 3.978900909423828 C 7.938961029052734 3.909631013870239 7.78416109085083 3.873020887374878 7.6298508644104 3.873020887374878 C 7.36289119720459 3.873020887374878 7.111791133880615 3.977111101150513 6.92280101776123 4.166100978851318 L 4.166100978851318 6.92370080947876 C 3.861361026763916 7.227550983428955 3.785760879516602 7.691220760345459 3.97800087928772 8.07750129699707 L 5.833800792694092 11.78820133209229 C 5.329171180725098 12.71157073974609 4.92047119140625 13.69833087921143 4.619700908660889 14.7204008102417 L 0.6840009689331055 16.03170013427734 C 0.274880975484848 16.16868019104004 9.857177474259515e-07 16.55025100708008 9.857177474259515e-07 16.981201171875 L 9.857177474259515e-07 20.87910079956055 C 9.857177474259515e-07 21.31041145324707 0.274880975484848 21.69162178039551 0.6840009689331055 21.82770156860352 L 4.619700908660889 23.13990020751953 C 4.920170783996582 24.16094017028809 5.328650951385498 25.14779090881348 5.833800792694092 26.07210159301758 L 3.978900909423828 29.78190040588379 C 3.785701036453247 30.16830062866211 3.860930919647217 30.6323413848877 4.166100978851318 30.93660163879395 L 6.92370080947876 33.69330215454102 C 7.112560749053955 33.88216018676758 7.363611221313477 33.98616027832031 7.630610942840576 33.98614120483398 C 7.784740924835205 33.98614120483398 7.939270973205566 33.94961166381836 8.07750129699707 33.88050079345703 L 11.7873010635376 32.02560043334961 C 12.71566104888916 32.53287124633789 13.70211124420166 32.94157028198242 14.71860122680664 33.23970031738281 L 16.03170013427734 37.17630004882812 C 16.16868019104004 37.58542251586914 16.54989051818848 37.86030197143555 16.98030090332031 37.86030197143555 L 21.60000038146973 37.86030197143555 M 11.85300064086914 29.9142017364502 L 11.85251140594482 29.91445159912109 L 7.800301074981689 31.94100189208984 L 5.91930103302002 30.06000137329102 L 7.947000980377197 26.00730133056641 L 7.687800884246826 25.56990051269531 C 7.065401077270508 24.51758003234863 6.593320846557617 23.37813186645508 6.284700870513916 22.18320083618164 L 6.158700942993164 21.69270133972168 L 1.86030101776123 20.25990104675293 L 1.86030101776123 17.60040092468262 L 6.158700942993164 16.16670036315918 L 6.284700870513916 15.67710113525391 C 6.593320846557617 14.48217105865479 7.065401077270508 13.3427209854126 7.687800884246826 12.29040145874023 L 7.947000980377197 11.85300064086914 L 5.91930103302002 7.800301074981689 L 7.800301074981689 5.91930103302002 L 11.85300064086914 7.946101188659668 L 12.28860092163086 7.687800884246826 C 13.34498119354248 7.063331127166748 14.4847412109375 6.591560840606689 15.67620086669922 6.285601139068604 L 16.16580009460449 6.159601211547852 L 17.60040092468262 1.86030101776123 L 20.25990104675293 1.86030101776123 L 21.69360160827637 6.159601211547852 L 22.18410110473633 6.285601139068604 C 23.37682151794434 6.592121124267578 24.51627159118652 7.063890933990479 25.57080078125 7.687800884246826 L 26.00730133056641 7.946101188659668 L 30.06000137329102 5.91930103302002 L 31.94100189208984 7.800301074981689 L 29.91330146789551 11.85300064086914 L 30.17160034179688 12.29040145874023 C 30.7949104309082 13.34274101257324 31.26698112487793 14.48219108581543 31.5747013092041 15.67710113525391 L 31.69980049133301 16.16670036315918 L 36 17.60040092468262 L 36 20.25990104675293 L 31.69980049133301 21.69270133972168 L 31.5747013092041 22.18320083618164 C 31.26698112487793 23.37811088562012 30.7949104309082 24.5175609588623 30.17160034179688 25.56990051269531 L 29.91330146789551 26.00730133056641 L 31.94100189208984 30.06000137329102 L 30.06000137329102 31.94100189208984 L 26.00730133056641 29.9142017364502 L 25.57080078125 30.17160034179688 C 24.51895141601562 30.79482078552246 23.37950134277344 31.2665901184082 22.18410110473633 31.57380104064941 L 21.69360160827637 31.69980049133301 L 20.25990104675293 36 L 17.60040092468262 36 L 16.16580009460449 31.69980049133301 L 15.67620086669922 31.57380104064941 C 14.4820613861084 31.26715087890625 13.34230136871338 30.79538154602051 12.28860092163086 30.17160034179688 L 11.85300064086914 29.9142017364502 M 21.60000038146973 38.060302734375 L 16.98030090332031 38.060302734375 C 16.46379089355469 38.060302734375 16.00636100769043 37.73057174682617 15.84205055236816 37.23979949951172 L 14.5618314743042 33.40176773071289 C 13.60093784332275 33.11258697509766 12.6673059463501 32.72588729858398 11.78359317779541 32.25106430053711 L 8.166940689086914 34.05939102172852 C 8.001080513000488 34.14231109619141 7.815620899200439 34.18614196777344 7.630610942840576 34.18614196777344 C 7.310201168060303 34.18616104125977 7.008921146392822 34.06135940551758 6.782280921936035 33.83472061157227 L 4.024701118469238 31.07804107666016 C 3.658560991287231 30.7130012512207 3.568191051483154 30.15610122680664 3.800010919570923 29.69246101379395 L 5.608336925506592 26.07580947875977 C 5.135890960693359 25.19649887084961 4.749198913574219 24.26252555847168 4.457752227783203 23.29672622680664 L 0.6207410097122192 22.01743125915527 C 0.1298909783363342 21.85417175292969 -0.1999990195035934 21.39669036865234 -0.1999990195035934 20.87910079956055 L -0.1999990195035934 16.981201171875 C -0.1999990195035934 16.46415138244629 0.1297309845685959 16.00636100769043 0.6205009818077087 15.84205055236816 L 4.457761764526367 14.56354236602783 C 4.749199867248535 13.5977783203125 5.135876655578613 12.66384124755859 5.608331680297852 11.78450489044189 L 3.799120903015137 8.166960716247559 C 3.568310976028442 7.70318078994751 3.659111022949219 7.146780967712402 4.024890899658203 6.782071113586426 L 6.781361103057861 4.024701118469238 C 7.008151054382324 3.797910928726196 7.309481143951416 3.673021078109741 7.6298508644104 3.673021078109741 C 7.815061092376709 3.673021078109741 8.000781059265137 3.716931104660034 8.166940689086914 3.800010919570923 L 11.78367519378662 5.608378410339355 C 12.66739940643311 5.134328365325928 13.60097122192383 4.747671604156494 14.56180000305176 4.45773458480835 L 15.84198093414307 0.620701014995575 C 16.00636100769043 0.1297309845685959 16.46379089355469 -0.1999990195035934 16.98030090332031 -0.1999990195035934 L 20.87910079956055 -0.1999990195035934 C 21.39669036865234 -0.1999990195035934 21.85417175292969 0.1298909783363342 22.01748085021973 0.6208809614181519 L 23.29760932922363 4.457756042480469 C 24.26054382324219 4.74852466583252 25.19445037841797 5.13521146774292 26.07661437988281 5.608373165130615 L 29.69244003295898 3.800020933151245 C 29.85862159729004 3.716931104660034 30.04443168640137 3.673021078109741 30.22979164123535 3.673021078109741 C 30.55068016052246 3.673021078109741 30.85200119018555 3.797981023788452 31.07823181152344 4.024890899658203 L 33.83562088012695 6.782280921936035 C 34.2012825012207 7.147931098937988 34.29157257080078 7.704380989074707 34.0602912902832 8.166940689086914 L 32.2511100769043 11.78442192077637 C 32.72438430786133 12.66381168365479 33.111083984375 13.59780788421631 33.40173721313477 14.56357097625732 L 37.23950958251953 15.84195137023926 C 37.73057174682617 16.00636100769043 38.060302734375 16.46415138244629 38.060302734375 16.981201171875 L 38.060302734375 20.87910079956055 C 38.060302734375 21.39669036865234 37.73041152954102 21.85417175292969 37.23942184448242 22.01748085021973 L 33.4017448425293 23.29670906066895 C 33.11109924316406 24.26244735717773 32.72439956665039 25.19645309448242 32.25111770629883 26.07586860656738 L 34.06027221679688 29.69242095947266 C 34.29175186157227 30.15538024902344 34.20146179199219 30.71220016479492 33.83562088012695 31.0780200958252 L 31.07800102233887 33.83473968505859 C 30.85141181945801 34.06134033203125 30.54999160766602 34.18614196777344 30.22929191589355 34.18614196777344 C 30.04418182373047 34.18614959716797 29.85880088806152 34.14229202270508 29.69320106506348 34.05929946899414 L 26.07670783996582 32.25106430053711 C 25.19446563720703 32.72506332397461 24.2605152130127 33.11176681518555 23.29759979248047 33.40172958374023 L 21.74436187744141 38.05961990356445 L 21.60000038146973 38.060302734375 Z M 17.7445125579834 35.79999923706055 L 20.11576080322266 35.79999923706055 L 21.53832054138184 31.5331916809082 L 22.13434028625488 31.38009071350098 C 23.31138038635254 31.07760047912598 24.43328094482422 30.61311149597168 25.46885108947754 29.99953079223633 L 25.99944114685059 29.6866512298584 L 30.02052307128906 31.6976375579834 L 31.69762229919434 30.02054023742676 L 29.68570137023926 25.99939155578613 L 29.99939155578613 25.46820068359375 C 30.61320114135742 24.4318904876709 31.07801055908203 23.30995178222656 31.38102149963379 22.13332176208496 L 31.53299140930176 21.53747177124023 L 35.79999923706055 20.11573600769043 L 35.79999923706055 17.74454116821289 L 31.53304100036621 16.32192039489746 L 31.38093185424805 15.72661113739014 C 31.07801055908203 14.5503511428833 30.61320114135742 13.42841053009033 29.99952125549316 12.39232063293457 L 29.68570137023926 11.86091136932373 L 31.69762229919434 7.839762210845947 L 30.02052307128906 6.16266393661499 L 25.9992618560791 8.173741340637207 L 25.46895027160645 7.859920978546143 C 24.4306812286377 7.245631217956543 23.30874061584473 6.781120777130127 22.13432121276855 6.479310989379883 L 21.538330078125 6.326210975646973 L 20.11576652526855 2.060301065444946 L 17.74451065063477 2.060301065444946 L 16.32106018066406 6.326160907745361 L 15.72605133056641 6.479290962219238 C 14.55276107788086 6.780580997467041 13.43051052093506 7.245100975036621 12.390380859375 7.859971046447754 L 11.86114120483398 8.17379093170166 L 7.839777946472168 6.16266393661499 L 6.162679672241211 7.839762210845947 L 8.174680709838867 11.86109066009521 L 7.859860897064209 12.39236068725586 C 7.247100830078125 13.428391456604 6.782260894775391 14.55041122436523 6.47835111618042 15.72711086273193 L 6.325261116027832 16.32198143005371 L 2.060301065444946 17.7445182800293 L 2.060301065444946 20.11574363708496 L 6.325301170349121 21.53742027282715 L 6.478411197662354 22.13344192504883 C 6.782260894775391 23.30989074707031 7.247100830078125 24.43191146850586 7.859941005706787 25.46808052062988 L 8.174680709838867 25.99921035766602 L 6.162679672241211 30.02054023742676 L 7.839778423309326 31.6976375579834 L 11.86089134216309 29.68664169311523 L 12.39035129547119 29.99941062927246 C 13.42791080474854 30.6136417388916 14.55012130737305 31.07814025878906 15.72595119476318 31.38009071350098 L 16.32107162475586 31.53324127197266 L 17.7445125579834 35.79999923706055 Z" stroke="none" fill="#583fe9"/>
        </g>
      </g>
    </g>
    <circle id="Oval" cx="8" cy="8" r="8" transform="translate(-8859 16198)" fill="none" stroke="#583fe9" stroke-miterlimit="10" stroke-width="2.5"/>
  </g>
</svg>
