<svg id="credit-card-payment" xmlns="http://www.w3.org/2000/svg" width="30.535" height="30.535" viewBox="0 0 30.535 30.535">
  <path id="Path_1" data-name="Path 1" d="M75,257h4.175v1.789H75Z" transform="translate(-70.527 -241.673)" fill="#593fe9"/>
  <path id="Path_2" data-name="Path 2" d="M22.961,182H2.684A2.687,2.687,0,0,0,0,184.684V199a2.687,2.687,0,0,0,2.684,2.684H22.961A2.687,2.687,0,0,0,25.645,199V184.684A2.687,2.687,0,0,0,22.961,182ZM2.684,185.578a.9.9,0,0,1,.895-.895H9.542a.9.9,0,0,1,.895.895v3.578a.9.9,0,0,1-.895.895H3.578a.9.9,0,0,1-.895-.895Zm.895,8.051H5.367a.895.895,0,1,1,0,1.789H3.578a.895.895,0,1,1,0-1.789ZM9.542,199H3.578a.895.895,0,0,1,0-1.789H9.542a.895.895,0,1,1,0,1.789Zm1.193-3.578H8.946a.895.895,0,1,1,0-1.789h1.789a.895.895,0,1,1,0,1.789Zm5.367,0H14.313a.895.895,0,1,1,0-1.789H16.1a.895.895,0,1,1,0,1.789Zm5.964-5.367H19.084a.895.895,0,0,1,0-1.789h2.982a.895.895,0,0,1,0,1.789Zm0-3.578H19.084a.895.895,0,0,1,0-1.789h2.982a.895.895,0,0,1,0,1.789Z" transform="translate(0 -171.146)" fill="#593fe9"/>
  <path id="Path_3" data-name="Path 3" d="M435.373,160.725,433.6,154.1l-2.987.8a4.467,4.467,0,0,1,1.753,3.547v5.862l1.112-.3A2.687,2.687,0,0,0,435.373,160.725Z" transform="translate(-404.93 -144.91)" fill="#593fe9"/>
  <path id="Path_4" data-name="Path 4" d="M263.627,99.476l5.982-1.6-.463-1.728-12.432,3.331Z" transform="translate(-241.404 -90.411)" fill="#593fe9"/>
  <path id="Path_5" data-name="Path 5" d="M31.668,9.065H37.98L56.861,4.006l-.54-2.016a2.687,2.687,0,0,0-3.287-1.9L33.448,5.34a2.687,2.687,0,0,0-1.9,3.287Z" transform="translate(-29.582 0)" fill="#593fe9"/>
</svg>
