<svg xmlns="http://www.w3.org/2000/svg" width="22.5" height="21.5" viewBox="0 0 22.5 21.5">
  <g id="_1" data-name="1" transform="translate(0.75 0.75)">
    <g id="Send-to-Back">
      <rect id="Rectangle" width="13.65" height="13.684" rx="2" transform="translate(0 6.316)" fill="#fff" stroke="#523de6" stroke-miterlimit="10" stroke-width="1.5"/>
      <rect id="Rectangle-2" data-name="Rectangle" width="13.65" height="13.684" rx="2" transform="translate(3.15 3.158)" fill="#fff" stroke="#343435" stroke-miterlimit="10" stroke-width="1.5"/>
      <rect id="Rectangle-3" data-name="Rectangle" width="13.65" height="13.684" rx="2" transform="translate(7.35 0)" fill="#fff" stroke="#343435" stroke-miterlimit="10" stroke-width="1.5"/>
      <path id="Fill_1" data-name="Fill 1" d="M3.93,4.917q.645-.689,1.3-1.373a.583.583,0,0,1,.665-.168.63.63,0,0,1,.419.555.7.7,0,0,1-.217.588Q4.977,5.694,3.865,6.874c-.084.089-.164.181-.248.269a.608.608,0,0,1-.913,0Q1.454,5.823.207,4.5a.69.69,0,0,1-.021-.965.6.6,0,0,1,.912.019c.431.451.858.907,1.287,1.36.038.04.077.078.144.146v-.2q0-2.081,0-4.162A.629.629,0,1,1,3.784.6c0,.062,0,.125,0,.188q0,2.026,0,4.052V5.01l.064.056A.651.651,0,0,1,3.93,4.917Z" transform="translate(18.375 3.684) rotate(90)" fill="#343435"/>
    </g>
  </g>
</svg>
