<?xml version="1.0" encoding="UTF-8"?>
<svg width="20px" height="19px" viewBox="0 0 20 19" version="1.1" xmlns="http://www.w3.org/2000/svg" xmlns:xlink="http://www.w3.org/1999/xlink">
    <!-- Generator: Sketch 62 (91390) - https://sketch.com -->
    <desc>Created with Sketch.</desc>
    <g id="Page-1" stroke="none" stroke-width="1" fill="none" fill-rule="evenodd">
        <g id="Templific-Right-Click-Comands" transform="translate(-75.000000, -70.000000)" fill="#212121" fill-rule="nonzero">
            <g id="right-click-bg" transform="translate(60.000000, 51.000000)">
                <g id="Copy-Icon" transform="translate(16.000000, 20.404762)">
                    <path d="M11.9090909,3.29761905 L2,3.29761905 C0.481216938,3.29761905 -0.75,4.52883599 -0.75,6.04761905 L-0.75,14.1904762 C-0.75,15.7092593 0.481216938,16.9404762 2,16.9404762 L11.9090909,16.9404762 C13.427874,16.9404762 14.6590909,15.7092593 14.6590909,14.1904762 L14.6590909,6.04761905 C14.6590909,4.52883599 13.427874,3.29761905 11.9090909,3.29761905 Z M2,4.79761905 L11.9090909,4.79761905 C12.5994468,4.79761905 13.1590909,5.35726311 13.1590909,6.04761905 L13.1590909,14.1904762 C13.1590909,14.8808321 12.5994468,15.4404762 11.9090909,15.4404762 L2,15.4404762 C1.30964406,15.4404762 0.75,14.8808321 0.75,14.1904762 L0.75,6.04761905 C0.75,5.35726311 1.30964406,4.79761905 2,4.79761905 Z" id="Rectangle"></path>
                    <path d="M16,-0.75 C17.4625318,-0.75 18.6584043,0.391704595 18.7449812,1.83247767 L18.75,2 L18.75,11.3333333 C18.75,11.7475469 18.4142136,12.0833333 18,12.0833333 C17.6203042,12.0833333 17.306509,11.8011795 17.2568466,11.4351039 L17.25,11.3333333 L17.25,2 C17.25,1.35279131 16.7581253,0.820466101 16.1278052,0.756453609 L16,0.75 L5.72727273,0.75 C5.31305916,0.75 4.97727273,0.414213562 4.97727273,-1.49991131e-13 C4.97727273,-0.379695766 5.25942661,-0.693490961 5.62550217,-0.743153384 L5.72727273,-0.75 L16,-0.75 Z" id="Path-2"></path>
                </g>
            </g>
        </g>
    </g>
</svg>