<svg width="17" height="18" viewBox="0 0 17 18" fill="none" xmlns="http://www.w3.org/2000/svg">
<path fill-rule="evenodd" clip-rule="evenodd" d="M2.34472 0.926031C1.86888 1.02999 1.53793 1.18864 1.19085 1.47919C0.821422 1.78843 0.528686 2.23147 0.382572 2.70251L0.293945 2.9882V9.00354V15.0189L0.382572 15.3046C0.637566 16.1267 1.28119 16.7703 2.10331 17.0253L2.389 17.1139H8.40434H14.4197L14.7054 17.0253C15.5275 16.7703 16.1711 16.1267 16.4261 15.3046L16.5147 15.0189V11.9533V8.8878L16.4296 8.75912C16.2985 8.56098 16.1433 8.47978 15.8957 8.47978C15.6482 8.47978 15.493 8.56098 15.3619 8.75908L15.2767 8.88774L15.2609 11.874L15.245 14.8602L15.1713 15.0428C15.0288 15.3955 14.7494 15.6627 14.3927 15.7872C14.2377 15.8413 13.9275 15.8442 8.38846 15.8442H2.54771L2.36513 15.7705C2.01233 15.628 1.74521 15.3486 1.62072 14.9919C1.56663 14.8369 1.56367 14.5272 1.56367 9.00354C1.56367 3.47984 1.56663 3.17021 1.62072 3.01521C1.74521 2.65845 2.01233 2.37905 2.36513 2.23661L2.54771 2.16287L5.54745 2.147L8.54718 2.13113L8.66834 2.0558C8.735 2.01438 8.82785 1.92255 8.87467 1.85179C8.94562 1.74459 8.95984 1.68787 8.95984 1.51214C8.95984 1.33641 8.94562 1.27968 8.87467 1.17249C8.82785 1.10173 8.735 1.0099 8.66834 0.968472L8.54718 0.893145L5.54745 0.887431C3.08084 0.882701 2.51162 0.889558 2.34472 0.926031ZM12.769 0.952632C11.8722 1.09983 10.9815 1.6247 10.115 2.51649C9.13433 3.5258 8.65669 4.50838 8.65898 5.51178C8.66022 6.05701 8.83061 6.61785 9.12465 7.04428L9.27318 7.25973L8.17499 8.36175C7.19279 9.34745 7.07283 9.47886 7.03896 9.60634C6.90609 10.1064 7.33361 10.5347 7.83166 10.4006C7.95285 10.368 8.06211 10.274 8.61276 9.72922L9.25299 9.09582L9.33619 9.29571C9.44437 9.55559 9.48189 9.73335 9.48284 9.99044C9.48567 10.7529 8.90451 11.6659 7.83296 12.5825C7.50273 12.8649 7.00284 13.126 6.59469 13.2293C5.94728 13.393 5.36432 13.1954 4.7759 12.6128C4.2422 12.0844 4.04948 11.4817 4.21042 10.8443C4.36873 10.2173 4.67956 9.74608 5.40851 9.02798C5.94186 8.50257 6.40185 8.19783 6.90799 8.03458C7.30158 7.90764 7.48299 7.69721 7.48359 7.36705C7.48391 7.19878 7.33548 6.94902 7.18156 6.85881C6.98259 6.74222 6.86425 6.73304 6.57628 6.81186C5.74702 7.03882 4.76666 7.74768 3.97282 8.69427C2.57238 10.3642 2.52143 12.0955 3.83261 13.4591C4.65895 14.3185 5.59398 14.6739 6.61084 14.5153C7.49604 14.3772 8.28746 13.9359 9.14586 13.1019C10.256 12.0233 10.7973 10.9196 10.7451 9.84137C10.7226 9.37643 10.636 9.06877 10.3886 8.5752L10.182 8.16272L11.2091 7.13088C11.774 6.56337 12.2704 6.04904 12.3121 5.98793C12.4254 5.8223 12.4199 5.51286 12.3006 5.3372C12.132 5.08887 11.8668 4.98983 11.5783 5.06744C11.455 5.10058 11.351 5.18984 10.8075 5.729C10.1249 6.40612 10.1704 6.38183 10.0572 6.12986C9.69657 5.32694 10.0758 4.32887 11.1347 3.29417C11.7528 2.69016 12.2403 2.38419 12.8169 2.23836C13.4643 2.07466 14.0473 2.27223 14.6357 2.85481C15.1694 3.38318 15.3621 3.98589 15.2012 4.62332C15.0452 5.24127 14.7272 5.72764 14.0349 6.40748C13.4803 6.95201 13.052 7.22846 12.5031 7.396C12.158 7.50139 12.0408 7.58328 11.9386 7.7905C11.87 7.92951 11.859 7.98572 11.8747 8.11806C11.9108 8.42254 12.1367 8.65021 12.4308 8.67846C12.6997 8.7043 13.3143 8.49403 13.8015 8.20948C14.6828 7.69477 15.683 6.63603 16.1333 5.74122C16.8402 4.33633 16.5868 2.95738 15.4178 1.84808C14.9575 1.41132 14.5033 1.14598 13.9743 1.00472C13.6541 0.919206 13.1146 0.895907 12.769 0.952632Z" fill="black"/>
</svg>
