<svg width="16" height="18" viewBox="0 0 16 18" fill="none" xmlns="http://www.w3.org/2000/svg">
<path fill-rule="evenodd" clip-rule="evenodd" d="M2.49256 0.745865C1.61388 0.870958 0.829168 1.47451 0.48081 2.29309C0.265687 2.79863 0.278969 2.35772 0.278969 8.99588C0.278969 15.634 0.265687 15.1931 0.48081 15.6987C0.731803 16.2885 1.18457 16.7537 1.77064 17.024C2.24929 17.2448 2.25705 17.2457 3.7367 17.2603C4.6573 17.2694 5.11533 17.2623 5.19751 17.2379C5.65655 17.1012 5.79764 16.477 5.44404 16.1472C5.26696 15.982 5.21444 15.976 3.95221 15.976C3.28862 15.976 2.70038 15.9616 2.60244 15.943C2.22238 15.871 1.87056 15.597 1.69108 15.2334L1.58774 15.024V8.99588V2.96773L1.69108 2.75836C1.87056 2.39475 2.22238 2.12078 2.60244 2.04872C2.84063 2.00354 10.805 2.00354 11.0432 2.04872C11.4232 2.12078 11.775 2.39472 11.9545 2.7583L12.0579 2.96757L12.0741 5.1981C12.0856 6.77576 12.1012 7.45277 12.1275 7.51119C12.3625 8.03431 13.0489 8.06698 13.3051 7.56723C13.3638 7.4528 13.3666 7.34571 13.3666 5.21458C13.3666 3.27899 13.3597 2.95141 13.3146 2.75326C13.0985 1.80274 12.4199 1.09419 11.4439 0.799864C11.2613 0.744799 10.9972 0.741115 6.91975 0.73672C4.53812 0.734167 2.54588 0.738271 2.49256 0.745865ZM3.2203 4.67372C3.14204 4.71369 3.03352 4.8023 2.97917 4.87062C2.88797 4.98521 2.88035 5.01429 2.88035 5.24731C2.88035 5.48034 2.88797 5.50942 2.97917 5.62401C3.03352 5.69233 3.14204 5.7809 3.2203 5.82091L3.36262 5.89362H6.81453C9.85711 5.89362 10.2806 5.88767 10.3861 5.8436C10.9154 5.62246 10.9154 4.87217 10.3861 4.65103C10.2806 4.60696 9.85711 4.60101 6.81453 4.60101H3.36262L3.2203 4.67372ZM3.2203 7.25894C3.14204 7.29894 3.03352 7.38752 2.97917 7.45584C2.88797 7.57043 2.88035 7.59951 2.88035 7.83253C2.88035 8.06556 2.88797 8.09464 2.97917 8.20923C3.03352 8.27755 3.14204 8.36612 3.2203 8.40613L3.36262 8.47884H6.81453C9.85711 8.47884 10.2806 8.47289 10.3861 8.42882C10.9154 8.20768 10.9154 7.45739 10.3861 7.23625C10.2806 7.19218 9.85711 7.18623 6.81453 7.18623H3.36262L3.2203 7.25894ZM12.7365 9.56117C12.5066 9.6123 12.2743 9.71186 12.074 9.84506C11.8715 9.97972 8.20525 13.6393 8.13216 13.7798C8.09942 13.8426 7.89583 14.4752 7.67974 15.1855C7.32437 16.3536 7.28798 16.496 7.29865 16.6776C7.30831 16.842 7.32809 16.9006 7.40781 17.0008C7.55248 17.1826 7.75365 17.2771 7.95384 17.257C8.10201 17.2422 10.1946 16.6775 10.6845 16.5201L10.8945 16.4526L12.7467 14.6066C14.7063 12.6536 14.8398 12.5029 14.987 12.0764C15.0512 11.8905 15.0632 11.7922 15.0632 11.4518C15.0632 10.9644 14.9977 10.7366 14.752 10.3692C14.3133 9.71328 13.5067 9.3899 12.7365 9.56117ZM3.2203 9.84416C3.14204 9.88416 3.03352 9.97274 2.97917 10.0411C2.88797 10.1556 2.88035 10.1847 2.88035 10.4178C2.88035 10.6508 2.88797 10.6799 2.97917 10.7945C3.03352 10.8628 3.14204 10.9513 3.2203 10.9913L3.36262 11.0641L5.51281 11.0633C7.53678 11.0627 7.6706 11.0591 7.79226 11.0028C8.29994 10.7678 8.29994 10.0677 7.79226 9.83272C7.6706 9.77639 7.53678 9.77284 5.51281 9.77216L3.36262 9.77145L3.2203 9.84416ZM13.3915 10.8556C13.8321 11.0397 13.9255 11.607 13.5705 11.944L13.4776 12.0322L13.0275 11.5813L12.5774 11.1303L12.6731 11.0285C12.8659 10.8234 13.1505 10.7549 13.3915 10.8556ZM11.3792 14.1325L10.1836 15.3265L9.53903 15.5049C9.18453 15.603 8.89198 15.68 8.88891 15.6761C8.88588 15.6722 8.96931 15.3854 9.0744 15.0388L9.26545 14.4087L10.4678 13.2237L11.6701 12.0386L12.1224 12.4885L12.5747 12.9384L11.3792 14.1325Z" fill="black"/>
</svg>
