<svg xmlns="http://www.w3.org/2000/svg" width="27.761" height="20.128" viewBox="0 0 27.761 20.128">
  <path id="Frame_1_" data-name="Frame (1)" d="M24.586,15.056a9.954,9.954,0,0,0,.255,2.448,5.548,5.548,0,0,0,.68,1.6,3.239,3.239,0,0,0,.867.918,3.407,3.407,0,0,0,.867.459,3.207,3.207,0,0,0,.663.187q.272.034.272.085,0,.136-.323.323a1.318,1.318,0,0,1-.748.2,3.954,3.954,0,0,1-3.06-1.462,5.7,5.7,0,0,1-1.02-1.836,8.072,8.072,0,0,1-.391-2.652q0-.7.068-1.5T22.9,12.2q-.969,0-2.3.1-.731,1.139-1.615,2.329a29.309,29.309,0,0,1-1.87,2.278,22.751,22.751,0,0,1-2.108,2.074,14.972,14.972,0,0,1-2.329,1.683,11.383,11.383,0,0,1-2.516,1.139,8.646,8.646,0,0,1-2.686.425,8.45,8.45,0,0,1-2.992-.493,6.042,6.042,0,0,1-2.227-1.36A5.6,5.6,0,0,1,.9,18.3a7.4,7.4,0,0,1-.476-2.7,5.759,5.759,0,0,1,.357-1.972A8.8,8.8,0,0,1,1.7,11.741a10.185,10.185,0,0,1,1.343-1.7A11,11,0,0,1,4.628,8.664a7.266,7.266,0,0,1,1.649-.918,4.116,4.116,0,0,1,1.547-.34,2.983,2.983,0,0,1,1.224.2,1.675,1.675,0,0,1,.663.459,1.314,1.314,0,0,1,.255.561A4.225,4.225,0,0,1,10,9.106a.224.224,0,0,1-.136.238,1.258,1.258,0,0,1-.391.051q-.255-.017-.561-.051A3.717,3.717,0,0,0,8.3,9.293a3.5,3.5,0,0,0-1.343.289,5.838,5.838,0,0,0-1.36.765A8.29,8.29,0,0,0,4.3,11.52a7.5,7.5,0,0,0-1.054,1.462,8.224,8.224,0,0,0-.731,1.683,5.819,5.819,0,0,0-.272,1.751,4.917,4.917,0,0,0,.374,1.9A4.4,4.4,0,0,0,3.693,19.9a5.005,5.005,0,0,0,1.734,1.105,6.517,6.517,0,0,0,2.4.408,7.128,7.128,0,0,0,3.2-.765,13,13,0,0,0,2.975-1.989,22.768,22.768,0,0,0,2.72-2.873q1.292-1.615,2.414-3.332l-.289.034-.272.034a16.341,16.341,0,0,0-2.006.408q-.85.238-1.462.459t-1.02.391a3.129,3.129,0,0,1-.612.187.442.442,0,0,1-.425-.221,1.4,1.4,0,0,1-.2-.612q-.017-.119.221-.255a2.929,2.929,0,0,1,.646-.289q.425-.153.969-.289t1.1-.255q.578-.136,1.139-.238.578-.1,1.037-.17.408-.068.867-.1l.952-.068Q20.9,9.7,21.832,8.018t1.683-2.992Q24.263,3.7,24.807,2.9t.85-.8a2.19,2.19,0,0,1,.459.051,3.838,3.838,0,0,1,.459.119,1.6,1.6,0,0,1,.34.153q.136.085.136.136a5.732,5.732,0,0,1-.272.867q-.255.748-.629,1.972-.357,1.224-.748,2.839a32.91,32.91,0,0,0-.6,3.417q.884.136.918.374.034.187-.085.255a.677.677,0,0,1-.221.085.551.551,0,0,1-.2,0q-.17-.034-.476-.068A24.617,24.617,0,0,0,24.586,15.056ZM23,11.469q.153-1.071.323-2.074.187-1.02.357-1.8.187-.918.391-1.734-.323.765-.765,1.649-.374.765-.918,1.768-.527,1-1.241,2.159.476-.017.935,0Q22.563,11.435,23,11.469Z" transform="translate(-0.429 -2.102)" fill="#000" opacity="1"/>
</svg>
