<?xml version="1.0" encoding="UTF-8"?>
<svg width="16px" height="20px" viewBox="0 0 16 20" version="1.1" xmlns="http://www.w3.org/2000/svg" xmlns:xlink="http://www.w3.org/1999/xlink">
    <!-- Generator: Sketch 62 (91390) - https://sketch.com -->
    <g id="Page-1" stroke="none" stroke-width="1" fill="none" fill-rule="evenodd">
        <g id="Templific-Right-Click-Comands" transform="translate(-76.000000, -105.000000)" fill="#212121" fill-rule="nonzero">
            <g id="right-click-bg" transform="translate(60.000000, 51.000000)">
                <g id="Paste-Iocn" transform="translate(17.000000, 55.470696)">
                    <polygon id="Line-4" points="11.125 3.40430403 11.125 4.65430403 2.875 4.65430403 2.875 3.40430403"></polygon>
                    <polygon id="Line-4" points="11.125 7.40430403 11.125 8.65430403 2.875 8.65430403 2.875 7.40430403"></polygon>
                    <polygon id="Line-4" points="11.125 11.404304 11.125 12.654304 2.875 12.654304 2.875 11.404304"></polygon>
                    <path d="M12,-0.75 L2,-0.75 C0.481216938,-0.75 -0.75,0.481216938 -0.75,2 L-0.75,15 C-0.75,16.5187831 0.481216938,17.75 2,17.75 L12,17.75 C13.5187831,17.75 14.75,16.5187831 14.75,15 L14.75,2 C14.75,0.481216938 13.5187831,-0.75 12,-0.75 Z M2,0.75 L12,0.75 C12.6903559,0.75 13.25,1.30964406 13.25,2 L13.25,15 C13.25,15.6903559 12.6903559,16.25 12,16.25 L2,16.25 C1.30964406,16.25 0.75,15.6903559 0.75,15 L0.75,2 C0.75,1.30964406 1.30964406,0.75 2,0.75 Z" id="Rectangle"></path>
                </g>
            </g>
        </g>
    </g>
</svg>