<svg xmlns="http://www.w3.org/2000/svg" width="23.176" height="17.654" viewBox="0 0 23.176 17.654">
  <g id="Redo_1_" transform="translate(0 0)">
    <g id="Group_47" data-name="Group 47" transform="translate(0 0)">
      <path id="Path_178" data-name="Path 178" d="M.523,78.632A.679.679,0,0,1,0,77.971a12.915,12.915,0,0,1,12.9-12.9h.679V61.675a.68.68,0,0,1,1.114-.522l8.238,6.79a.679.679,0,0,1-.058,1.087l-8.238,5.432A.679.679,0,0,1,13.58,73.9V70.5H12.9c-6.388,0-9.842,4.226-11.614,7.773A.679.679,0,0,1,.523,78.632Z" transform="translate(0 -60.995)"/>
    </g>
  </g>
</svg>
