<svg width="21" height="14" viewBox="0 0 21 14" fill="none" xmlns="http://www.w3.org/2000/svg">
<path fill-rule="evenodd" clip-rule="evenodd" d="M1.23314 0.191816C1.23314 0.202247 1.21607 0.210781 1.19521 0.210781C1.17435 0.210781 1.15728 0.219315 1.15728 0.229745C1.15728 0.240176 1.14209 0.24871 1.12354 0.24871C1.10498 0.24871 1.0775 0.265778 1.06246 0.286639C1.04742 0.3075 1.0236 0.324568 1.00951 0.324568C0.974784 0.324568 0.929706 0.371999 0.929706 0.408563C0.929706 0.424948 0.921172 0.438356 0.910741 0.438356C0.90031 0.438356 0.891776 0.455424 0.891776 0.476285C0.891776 0.497146 0.883242 0.514214 0.872812 0.514214C0.862381 0.514214 0.853847 0.531283 0.853847 0.552144C0.853847 0.573005 0.845313 0.590073 0.834883 0.590073C0.823826 0.590073 0.815918 0.653282 0.815918 0.74179C0.815918 0.830297 0.823826 0.893506 0.834883 0.893506C0.845313 0.893506 0.853847 0.910575 0.853847 0.931436C0.853847 0.952297 0.862381 0.969365 0.872812 0.969365C0.883242 0.969365 0.891776 0.984556 0.891776 1.0031C0.891776 1.02167 0.908845 1.04915 0.929706 1.06419C0.950567 1.07923 0.967635 1.10671 0.967635 1.12527C0.967635 1.14498 0.981669 1.15901 1.00137 1.15901C1.01994 1.15901 1.04742 1.17608 1.06246 1.19694C1.0775 1.2178 1.10498 1.23487 1.12354 1.23487C1.14209 1.23487 1.15728 1.2434 1.15728 1.25383C1.15728 1.26426 1.17435 1.2728 1.19521 1.2728C1.21607 1.2728 1.23314 1.28133 1.23314 1.29176C1.23314 1.30437 4.34333 1.31073 10.5258 1.31073C16.7083 1.31073 19.8184 1.30437 19.8184 1.29176C19.8184 1.28133 19.8355 1.2728 19.8564 1.2728C19.8772 1.2728 19.8943 1.26426 19.8943 1.25383C19.8943 1.2434 19.9114 1.23487 19.9322 1.23487C19.9531 1.23487 19.9702 1.22634 19.9702 1.2159C19.9702 1.20547 19.9836 1.19694 20 1.19694C20.0365 1.19694 20.084 1.15186 20.084 1.11714C20.084 1.10305 20.101 1.07923 20.1219 1.06419C20.1427 1.04915 20.1598 1.02167 20.1598 1.0031C20.1598 0.984556 20.1683 0.969365 20.1788 0.969365C20.1892 0.969365 20.1977 0.952297 20.1977 0.931436C20.1977 0.910575 20.2063 0.893506 20.2167 0.893506C20.2278 0.893506 20.2357 0.830297 20.2357 0.74179C20.2357 0.653282 20.2278 0.590073 20.2167 0.590073C20.2063 0.590073 20.1977 0.573005 20.1977 0.552144C20.1977 0.531283 20.1892 0.514214 20.1788 0.514214C20.1683 0.514214 20.1598 0.499024 20.1598 0.480476C20.1598 0.46191 20.1427 0.43443 20.1219 0.419391C20.101 0.404352 20.084 0.380533 20.084 0.366442C20.084 0.331718 20.0365 0.286639 20 0.286639C19.9836 0.286639 19.9702 0.278105 19.9702 0.267675C19.9702 0.257244 19.9531 0.24871 19.9322 0.24871C19.9114 0.24871 19.8943 0.240176 19.8943 0.229745C19.8943 0.219315 19.8772 0.210781 19.8564 0.210781C19.8355 0.210781 19.8184 0.202247 19.8184 0.191816C19.8184 0.179205 16.7083 0.172852 10.5258 0.172852C4.34333 0.172852 1.23314 0.179205 1.23314 0.191816ZM1.23314 3.60544C1.23314 3.61587 1.21607 3.62441 1.19521 3.62441C1.17435 3.62441 1.15728 3.63294 1.15728 3.64337C1.15728 3.6538 1.14209 3.66234 1.12354 3.66234C1.10498 3.66234 1.0775 3.67941 1.06246 3.70027C1.04742 3.72113 1.0236 3.7382 1.00951 3.7382C0.974784 3.7382 0.929706 3.78563 0.929706 3.82219C0.929706 3.83858 0.921172 3.85198 0.910741 3.85198C0.90031 3.85198 0.891776 3.86905 0.891776 3.88991C0.891776 3.91077 0.883242 3.92784 0.872812 3.92784C0.862381 3.92784 0.853847 3.94491 0.853847 3.96577C0.853847 3.98663 0.845313 4.0037 0.834883 4.0037C0.822423 4.0037 0.815918 4.4462 0.815918 5.29329C0.815918 6.14039 0.822423 6.58289 0.834883 6.58289C0.845313 6.58289 0.853847 6.59996 0.853847 6.62082C0.853847 6.64168 0.862381 6.65875 0.872812 6.65875C0.883242 6.65875 0.891776 6.67581 0.891776 6.69667C0.891776 6.71754 0.90031 6.7346 0.910741 6.7346C0.921172 6.7346 0.929706 6.74801 0.929706 6.7644C0.929706 6.80096 0.974784 6.84839 1.00951 6.84839C1.0236 6.84839 1.04742 6.86546 1.06246 6.88632C1.0775 6.90718 1.10498 6.92425 1.12354 6.92425C1.14209 6.92425 1.15728 6.93278 1.15728 6.94321C1.15728 6.95364 1.17435 6.96218 1.19521 6.96218C1.21607 6.96218 1.23314 6.97071 1.23314 6.98114C1.23314 6.99376 4.34333 7.00011 10.5258 7.00011C16.7083 7.00011 19.8184 6.99376 19.8184 6.98114C19.8184 6.97071 19.8355 6.96218 19.8564 6.96218C19.8772 6.96218 19.8943 6.95364 19.8943 6.94321C19.8943 6.93278 19.9114 6.92425 19.9322 6.92425C19.9531 6.92425 19.9702 6.91572 19.9702 6.90529C19.9702 6.89485 19.9836 6.88632 20 6.88632C20.0365 6.88632 20.084 6.84124 20.084 6.80652C20.084 6.79243 20.101 6.76861 20.1219 6.75357C20.1427 6.73853 20.1598 6.71105 20.1598 6.69248C20.1598 6.67394 20.1683 6.65875 20.1788 6.65875C20.1892 6.65875 20.1977 6.64168 20.1977 6.62082C20.1977 6.59996 20.2063 6.58289 20.2167 6.58289C20.2292 6.58289 20.2357 6.14039 20.2357 5.29329C20.2357 4.4462 20.2292 4.0037 20.2167 4.0037C20.2063 4.0037 20.1977 3.98663 20.1977 3.96577C20.1977 3.94491 20.1892 3.92784 20.1788 3.92784C20.1683 3.92784 20.1598 3.91265 20.1598 3.8941C20.1598 3.87554 20.1427 3.84806 20.1219 3.83302C20.101 3.81798 20.084 3.79416 20.084 3.78007C20.084 3.74535 20.0365 3.70027 20 3.70027C19.9836 3.70027 19.9702 3.69173 19.9702 3.6813C19.9702 3.67087 19.9531 3.66234 19.9322 3.66234C19.9114 3.66234 19.8943 3.6538 19.8943 3.64337C19.8943 3.63294 19.8772 3.62441 19.8564 3.62441C19.8355 3.62441 19.8184 3.61587 19.8184 3.60544C19.8184 3.59283 16.7083 3.58648 10.5258 3.58648C4.34333 3.58648 1.23314 3.59283 1.23314 3.60544ZM19.0978 5.29329V5.86223H10.5258H1.95379V5.29329V4.72436H10.5258H19.0978V5.29329ZM1.23314 9.29482C1.23314 9.30526 1.21607 9.31379 1.19521 9.31379C1.17435 9.31379 1.15728 9.32232 1.15728 9.33275C1.15728 9.34318 1.14209 9.35172 1.12354 9.35172C1.10498 9.35172 1.0775 9.36879 1.06246 9.38965C1.04742 9.41051 1.0236 9.42758 1.00951 9.42758C0.974784 9.42758 0.929706 9.47501 0.929706 9.51157C0.929706 9.52796 0.921172 9.54136 0.910741 9.54136C0.90031 9.54136 0.891776 9.55843 0.891776 9.57929C0.891776 9.60016 0.883242 9.61722 0.872812 9.61722C0.862381 9.61722 0.853847 9.63429 0.853847 9.65515C0.853847 9.67601 0.845313 9.69308 0.834883 9.69308C0.822366 9.69308 0.815918 10.3252 0.815918 11.5516C0.815918 12.778 0.822366 13.4101 0.834883 13.4101C0.845313 13.4101 0.853847 13.4272 0.853847 13.4481C0.853847 13.4689 0.862381 13.486 0.872812 13.486C0.883242 13.486 0.891776 13.5031 0.891776 13.5239C0.891776 13.5448 0.90031 13.5619 0.910741 13.5619C0.921172 13.5619 0.929706 13.5753 0.929706 13.5917C0.929706 13.6282 0.974784 13.6756 1.00951 13.6756C1.0236 13.6756 1.04742 13.6927 1.06246 13.7136C1.0775 13.7344 1.10498 13.7515 1.12354 13.7515C1.14209 13.7515 1.15728 13.76 1.15728 13.7705C1.15728 13.7809 1.17435 13.7894 1.19521 13.7894C1.21607 13.7894 1.23314 13.798 1.23314 13.8084C1.23314 13.821 4.34333 13.8274 10.5258 13.8274C16.7083 13.8274 19.8184 13.821 19.8184 13.8084C19.8184 13.798 19.8355 13.7894 19.8564 13.7894C19.8772 13.7894 19.8943 13.7809 19.8943 13.7705C19.8943 13.76 19.9114 13.7515 19.9322 13.7515C19.9531 13.7515 19.9702 13.743 19.9702 13.7325C19.9702 13.7221 19.9836 13.7136 20 13.7136C20.0365 13.7136 20.084 13.6685 20.084 13.6338C20.084 13.6197 20.101 13.5959 20.1219 13.5808C20.1427 13.5658 20.1598 13.5383 20.1598 13.5197C20.1598 13.5012 20.1683 13.486 20.1788 13.486C20.1892 13.486 20.1977 13.4689 20.1977 13.4481C20.1977 13.4272 20.2063 13.4101 20.2167 13.4101C20.2292 13.4101 20.2357 12.778 20.2357 11.5516C20.2357 10.3252 20.2292 9.69308 20.2167 9.69308C20.2063 9.69308 20.1977 9.67601 20.1977 9.65515C20.1977 9.63429 20.1892 9.61722 20.1788 9.61722C20.1683 9.61722 20.1598 9.60203 20.1598 9.58349C20.1598 9.56492 20.1427 9.53744 20.1219 9.5224C20.101 9.50736 20.084 9.48354 20.084 9.46945C20.084 9.43473 20.0365 9.38965 20 9.38965C19.9836 9.38965 19.9702 9.38111 19.9702 9.37068C19.9702 9.36025 19.9531 9.35172 19.9322 9.35172C19.9114 9.35172 19.8943 9.34318 19.8943 9.33275C19.8943 9.32232 19.8772 9.31379 19.8564 9.31379C19.8355 9.31379 19.8184 9.30526 19.8184 9.29482C19.8184 9.28221 16.7083 9.27586 10.5258 9.27586C4.34333 9.27586 1.23314 9.28221 1.23314 9.29482ZM19.0978 11.5516V12.6895H10.5258H1.95379V11.5516V10.4137H10.5258H19.0978V11.5516Z" fill="black"/>
</svg>
