<svg xmlns="http://www.w3.org/2000/svg" width="21" height="30" viewBox="0 0 21 30">
  <g id="Group_2" data-name="Group 2" transform="translate(0 5)">
    <text id="Bold_" data-name="Bold " transform="translate(0 15)" fill="#080808" font-size="20" font-family="Lato-Bold, Lato" font-weight="700" letter-spacing="0.013em"><tspan x="0" y="0" xml:space="preserve"> T</tspan><tspan y="0" font-size="15"> </tspan></text>
    <rect id="Rectangle" width="10" height="1" rx="0.5" transform="translate(5.5 22)" fill="#212121"/>
    <path id="Fill_1" data-name="Fill 1" d="M3.049,4.136a.537.537,0,0,1,.063-.122q.511-.563,1.026-1.121a.453.453,0,0,1,.527-.138A.512.512,0,0,1,5,3.208a.583.583,0,0,1-.172.48q-.884.96-1.764,1.923c-.066.072-.13.147-.2.219a.472.472,0,0,1-.723,0Q1.151,4.754.164,3.671a.576.576,0,0,1-.017-.788A.469.469,0,0,1,.87,2.9c.341.368.679.74,1.019,1.11.03.032.061.063.114.119V3.967q0-1.7,0-3.4A.512.512,0,0,1,2.546,0,.514.514,0,0,1,3,.489c0,.051,0,.1,0,.153Q3,2.3,3,3.95v.14l.051.046" transform="translate(13 25) rotate(-90)" fill="#212121"/>
    <path id="Fill_1-2" data-name="Fill 1" d="M3.049,4.136a.537.537,0,0,1,.063-.122q.511-.563,1.026-1.121a.453.453,0,0,1,.527-.138A.512.512,0,0,1,5,3.208a.583.583,0,0,1-.172.48q-.884.96-1.764,1.923c-.066.072-.13.147-.2.219a.472.472,0,0,1-.723,0Q1.151,4.754.164,3.671a.576.576,0,0,1-.017-.788A.469.469,0,0,1,.87,2.9c.341.368.679.74,1.019,1.11.03.032.061.063.114.119V3.967q0-1.7,0-3.4A.512.512,0,0,1,2.546,0,.514.514,0,0,1,3,.489c0,.051,0,.1,0,.153Q3,2.3,3,3.95v.14l.051.046" transform="translate(7 20) rotate(90)" fill="#212121"/>
  </g>
</svg>
