<svg width="14" height="17" viewBox="0 0 14 17" fill="none" xmlns="http://www.w3.org/2000/svg">
<path opacity="0.2" d="M4.86426 16C4.88617 15.7769 4.87521 15.5537 4.87156 15.3306C4.92999 15.3267 4.98842 15.3228 5.04685 15.3228C5.68227 15.3228 6.3177 15.3228 6.95677 15.3228C7.16493 15.3228 7.13936 15.3541 7.13936 15.1192C7.13936 11.0008 7.13936 6.88233 7.13571 2.76782C7.13571 2.63471 7.15762 2.59556 7.29274 2.59556C8.60376 2.60339 9.91478 2.59948 11.2258 2.60339C11.3353 2.60339 11.3719 2.57991 11.3719 2.45071C11.3682 1.86349 11.3719 1.27626 11.3755 0.685115C11.5508 0.685115 12.7261 0.685115 12.9014 0.6812C12.9854 0.677286 13.0073 0.712519 13.0073 0.798646C13.0036 1.58553 13.0036 3.3685 13.0073 4.15539C13.0073 4.28458 12.9452 4.28066 12.8612 4.28066C11.5648 4.28066 10.2684 4.28066 8.97199 4.28066C8.75288 4.28066 8.77479 4.25326 8.77479 4.48424C8.77479 8.60266 8.77479 11.7172 8.77479 15.8356C8.77479 15.8943 8.78209 15.9491 8.78574 16.0079C7.80705 16 5.83565 16 4.86426 16Z" fill="black"/>
<path d="M11.3682 0.681184C11.3646 1.26841 11.3609 1.85564 11.3646 2.44678C11.3646 2.57206 11.3317 2.59946 11.2185 2.59946C9.90749 2.59555 8.59647 2.59946 7.28545 2.59163C7.15033 2.59163 7.12842 2.6347 7.12842 2.76389C7.13207 6.88231 7.13207 11.0007 7.13207 15.1152C7.13207 15.3462 7.15764 15.3149 6.94948 15.3188C6.31406 15.3188 5.67864 15.3188 5.03956 15.3188C4.98113 15.3188 4.9227 15.3266 4.86427 15.3266C4.69994 15.3227 4.5356 15.311 4.37127 15.3188C4.26537 15.3227 4.23615 15.2836 4.24346 15.174C4.25076 15.0448 4.24346 14.9156 4.24346 14.7825C4.24346 11.0203 4.24346 7.25422 4.24346 3.49205C4.24346 3.41767 4.2398 3.3472 4.23615 3.27282C4.2398 3.07707 4.2398 2.87742 4.24711 2.68167C4.25076 2.59946 4.21424 2.58772 4.15216 2.58772C3.95861 2.59163 3.76506 2.58772 3.57152 2.58772C2.59282 2.58772 1.61412 2.59163 0.635423 2.59163C0.460134 2.59163 0.284845 2.5838 0.109556 2.58772C0.0365186 2.59946 0 2.57989 0 2.48593C0.00365186 1.69513 0.00365186 0.904331 0 0.113531C0 0.0352337 0.0219111 -0.00391485 0.0986001 0.00391485C0.124163 0.0078297 0.146074 0.00391485 0.171637 0.00391485C3.8454 0.00391485 7.51552 0.00391485 11.1893 0C11.3244 0 11.3792 0.0234891 11.3682 0.183998C11.3536 0.348422 11.3682 0.51676 11.3682 0.681184Z" fill="black"/>
<path opacity="0.2" d="M0.639195 2.5995C1.61789 2.5995 2.59659 2.59558 3.57529 2.59558C3.76884 2.59558 3.96239 2.59558 4.15593 2.59558C4.21802 2.59558 4.25453 2.60733 4.25088 2.68954C4.24358 2.88528 4.24358 4.08494 4.23993 4.28068C3.09324 4.28068 1.94656 4.27677 0.799877 4.28068C0.66841 4.28068 0.620936 4.24936 0.631891 4.1006C0.646499 3.93617 0.639195 2.76783 0.639195 2.5995Z" fill="black"/>
</svg>
