<svg id="Redo_1_" xmlns="http://www.w3.org/2000/svg" width="23.176" height="17.654" viewBox="0 0 23.176 17.654">
  <g id="Group_47" data-name="Group 47" transform="translate(0 0)">
    <path id="Path_178" data-name="Path 178" d="M22.653,78.632a.679.679,0,0,0,.523-.661,12.915,12.915,0,0,0-12.9-12.9H9.6V61.675a.68.68,0,0,0-1.114-.522L.244,67.943A.679.679,0,0,0,.3,69.03l8.238,5.432A.679.679,0,0,0,9.6,73.9V70.5h.679c6.388,0,9.842,4.226,11.614,7.773A.679.679,0,0,0,22.653,78.632Z" transform="translate(0 -60.995)"/>
  </g>
</svg>
