<svg width="29" height="35" viewBox="0 0 29 35" fill="none" xmlns="http://www.w3.org/2000/svg">
<path fill-rule="evenodd" clip-rule="evenodd" d="M13.3887 1.08756C11.008 1.50566 9.03309 3.1378 8.26357 5.32291C8.08297 5.83568 7.90058 6.7934 7.90011 7.23073L7.89984 7.50034L6.11655 7.52112C4.34592 7.54184 4.33059 7.54319 3.95493 7.71362C3.24234 8.03699 2.71702 8.65908 2.56903 9.35486C2.53196 9.52903 2.15243 13.9258 1.72558 19.1254C1.00433 27.9112 0.954593 28.625 1.02192 29.2246C1.26925 31.4272 2.75229 33.1355 5.01277 33.8218L5.59989 34H14.4997H23.3995L23.9866 33.8218C26.247 33.1355 27.7292 31.4282 27.9778 29.2246C28.0455 28.6242 27.9966 27.9222 27.2741 19.1254C26.847 13.9258 26.4672 9.52903 26.4303 9.35486C26.2826 8.65927 25.7571 8.03705 25.0445 7.71362C24.6688 7.54319 24.6535 7.54184 22.8829 7.52112L21.0996 7.50034L21.0993 7.23073C21.0989 6.80121 20.9176 5.8391 20.7446 5.34789C20.0862 3.47904 18.5399 1.97603 16.6255 1.34401C15.5999 1.00548 14.3982 0.910228 13.3887 1.08756ZM15.4161 3.0301C17.2198 3.3907 18.6215 4.74755 18.9941 6.49358C19.0521 6.76552 19.0996 7.10541 19.0996 7.24886V7.5097H14.4997H9.8998V7.24886C9.8998 7.10541 9.94727 6.76552 10.0053 6.49358C10.5187 4.08764 12.9433 2.53565 15.4161 3.0301ZM7.89984 10.7159C7.89984 11.8666 7.91278 12.012 8.03717 12.2608C8.18224 12.5508 8.58196 12.8013 8.89982 12.8013C9.18995 12.8013 9.60081 12.5566 9.7542 12.2924C9.89047 12.0576 9.8998 11.9585 9.8998 10.7436V9.44565H14.4997H19.0996V10.7436C19.0996 11.9585 19.1089 12.0576 19.2452 12.2924C19.3986 12.5566 19.8095 12.8013 20.0996 12.8013C20.4174 12.8013 20.8172 12.5508 20.9622 12.2608C21.0866 12.012 21.0996 11.8666 21.0996 10.7159V9.44565H22.6662C24.5063 9.44565 24.4535 9.42707 24.52 10.0972C24.5425 10.3244 24.8969 14.6194 25.3076 19.6414C25.9799 27.8617 26.0465 28.8174 25.9763 29.2243C25.7503 30.5341 24.6298 31.692 23.2933 31.9969C22.6503 32.1437 6.34908 32.1437 5.70609 31.9969C4.36972 31.692 3.24908 30.5341 3.02315 29.2246C2.95302 28.8182 3.02002 27.8586 3.69167 19.6417C4.10219 14.6195 4.45665 10.3244 4.47925 10.0972C4.54598 9.42707 4.49318 9.44565 6.33321 9.44565H7.89984V10.7159ZM17.8663 17.225C17.7563 17.2797 16.6461 18.3105 15.399 19.5158L13.1317 21.7073L12.2657 20.8664C11.1342 19.7678 10.8446 19.6289 10.2582 19.9037C10.0522 20.0002 9.93687 20.1119 9.83714 20.3113C9.66594 20.6535 9.66381 20.8705 9.82847 21.1769C9.95427 21.4109 12.3049 23.7151 12.6313 23.9242C12.8191 24.0446 13.2679 24.0627 13.5454 23.9612C13.8216 23.8601 19.0061 18.8322 19.1683 18.5081C19.3381 18.1687 19.3328 17.9268 19.1485 17.6156C18.8882 17.1761 18.3159 17.0018 17.8663 17.225Z" fill="#593FE9" stroke="#593FE9" stroke-width="0.5"/>
</svg>
