<svg xmlns="http://www.w3.org/2000/svg" width="211" height="120" viewBox="0 0 211 120">
  <g id="celebration-icon" transform="translate(0)">
    <g id="celebration-icon-2" data-name="celebration-icon">
      <path id="Fill_4" data-name="Fill 4" d="M10.5,21h-.058A10.526,10.526,0,0,1,0,10.334,10.524,10.524,0,0,1,10.508,0h.047a10.4,10.4,0,0,1,7.41,3.131A10.5,10.5,0,0,1,21,10.664a10.357,10.357,0,0,1-3.134,7.3A10.45,10.45,0,0,1,10.5,21Zm0-13.994h-.03a3.514,3.514,0,0,0-3.462,3.467,3.517,3.517,0,0,0,3.487,3.516l.141,0A3.492,3.492,0,0,0,10.5,7.007Z" transform="translate(119 10)" fill="#fff"/>
      <path id="Fill_6" data-name="Fill 6" d="M10.484,21h-.03a10.5,10.5,0,0,1,.053-21h.035a10.5,10.5,0,0,1-.058,21ZM10.5,7.007h-.026a3.492,3.492,0,0,0,.03,6.985l.129,0A3.492,3.492,0,0,0,10.5,7.007Z" transform="translate(5 27)" fill="#fff"/>
      <path id="Fill_1" data-name="Fill 1" d="M208.638,2.676a3.289,3.289,0,0,1-.5,4.81L202.36,11.8c-3.14,2.382-4.9,4.7-5.06,8.961-.668,17.383-1.844,34.746-2.788,52.118-.1,1.833-.464,3.377-2.316,4.144-1.782.738-3.089-.139-4.38-1.253q-19.955-17.226-39.907-34.456a3.026,3.026,0,0,0-3.521-.612c-4.428,1.6-8.891,3.124-13.4,4.476a3.033,3.033,0,0,0-2.44,2.856c-2.737,16.788-5.562,33.561-8.31,50.347-.29,1.773-.939,3.137-2.71,3.659-1.816.535-3.059-.422-4.191-1.752C101.7,86.615,90.016,72.978,78.419,59.269a3.564,3.564,0,0,0-3.785-1.384c-3.776.631-7.569,1.209-11.379,1.552a3.206,3.206,0,0,0-3.164,2.389q-10.4,27.108-20.926,54.164c-.16.413-.323.826-.477,1.241a3.581,3.581,0,0,1-3.413,2.687c-1.864.025-2.933-1.1-3.577-2.772q-3.536-9.207-7.115-18.4C20.2,87.453,15.82,76.238,11.5,64.919a2.773,2.773,0,0,0-3-2l-5.461.071A3,3,0,0,1,0,59.99V58.947a3,3,0,0,1,2.82-2.995L62.482,52.36c39.921-5.129,78.445-15.136,114.441-33.725L203.269,1.911A4.175,4.175,0,0,1,208.638,2.676Z" transform="translate(0 0.081)" fill="#fff"/>
      <path id="Fill_8" data-name="Fill 8" d="M10.522,21a10.5,10.5,0,0,1-.084-21h.046a10.488,10.488,0,0,1,7.435,17.912A10.4,10.4,0,0,1,10.559,21ZM10.5,7.006a3.492,3.492,0,0,0-.206,6.978c.067,0,.136.006.2.006a3.492,3.492,0,0,0,.1-6.983Z" transform="translate(187 88)" fill="#fff"/>
      <path id="Fill_10" data-name="Fill 10" d="M10.493,21h-.04a10.4,10.4,0,0,1-7.414-3.127A10.491,10.491,0,0,1,0,10.344,10.361,10.361,0,0,1,3.132,3.038,10.444,10.444,0,0,1,10.5,0h.051A10.527,10.527,0,0,1,21,10.658,10.524,10.524,0,0,1,10.493,21ZM10.5,7.011a3.537,3.537,0,0,0-3.49,3.322,3.492,3.492,0,1,0,3.6-3.32Z" transform="translate(63 95)" fill="#fff"/>
      <path id="Fill_12" data-name="Fill 12" d="M7.067,14.019H0V7.067H6.9V0h7.03V6.9H21v7.03H14.1V21H7.067Z" transform="translate(137 76)" fill="#fff"/>
      <path id="Fill_14" data-name="Fill 14" d="M0,4.473,4.267,0,15,10.661,10.506,15,0,4.473" transform="translate(31 12)" fill="#fff"/>
      <path id="Fill_16" data-name="Fill 16" d="M10.5,0,15,4.262,4.353,15,0,10.569,10.5,0" transform="translate(56 24)" fill="#fff"/>
      <path id="Fill_18" data-name="Fill 18" d="M4.778,0,12,7.459,7.3,12,0,4.6,4.778,0" transform="translate(140 48)" fill="#fff"/>
      <path id="Fill_20" data-name="Fill 20" d="M11,4.554,4.4,11,0,6.254,6.453,0,11,4.554" transform="translate(159 103)" fill="#fff"/>
      <path id="Fill_22" data-name="Fill 22" d="M4.073,11,0,6.783,6.911,0,11,4.229,4.073,11" transform="translate(61 75)" fill="#fff"/>
    </g>
  </g>
</svg>
