<svg id="paper-plane" xmlns="http://www.w3.org/2000/svg" width="66" height="60" viewBox="0 0 66 60">
  <g id="paper-plane-2" data-name="paper-plane">
    <g id="Group_10" data-name="Group 10">
      <g id="Group_3" data-name="Group 3">
        <path id="Fill_1" data-name="Fill 1" d="M24.147,57.818c-.663,0-1.191-.488-1.527-1.412-1-2.761-2.012-5.542-2.987-8.23l-.054-.149q-.886-2.442-1.772-4.885c-.142-.391-.289-.788-.432-1.172-.321-.864-.652-1.757-.945-2.647a1.189,1.189,0,0,0-.914-.856c-1.6-.465-3.225-.945-4.8-1.408l-.021-.006c-2.646-.781-5.382-1.588-8.083-2.353A3.362,3.362,0,0,1,0,32.519v-.775a3.572,3.572,0,0,1,2.22-2.232c16.595-7.93,33.435-16,49.72-23.8L63.158.342A2.9,2.9,0,0,1,64.375,0c.638,0,1.113.4,1.541,1.287.016.035.077.669.084.741q-.1.534-.21,1.067l0,.014c-.152.761-.308,1.547-.443,2.326-.847,4.877-1.7,9.832-2.522,14.624l-.4,2.335q-.957,5.566-1.913,11.132l-.008.047-.96,5.59q-.3,1.754-.6,3.509c-.606,3.533-1.233,7.187-1.861,10.782A2.667,2.667,0,0,1,54.42,55.7a3.113,3.113,0,0,1-1.377-.329c-2.012-.984-4.049-2-6.018-2.977l-.031-.015-2.488-1.236-1.873-.928-.02-.01c-1.8-.89-3.661-1.811-5.484-2.735a.966.966,0,0,0-.435-.126.837.837,0,0,0-.565.277c-2.623,2.386-5.3,4.8-7.88,7.126l-2.36,2.129-.289.258A2.265,2.265,0,0,1,24.147,57.818ZM28.883,43.4l-3.737,11.26.13.084L29,51.374l5.662-5.111-3.106-1.54-.114-.057ZM63.4,4.078h0L30.344,41.2l-.395.443c.064.04.122.078.176.114a2.781,2.781,0,0,0,.3.18c8.447,4.193,16.069,7.973,23.3,11.558a1.729,1.729,0,0,0,.73.219c.4,0,.625-.3.74-.982.333-1.966.676-3.96,1.009-5.889l.343-1.99,1.062-6.158.065-.377q1.14-6.611,2.28-13.222l.165-.956,0-.022c.992-5.759,2.019-11.715,3.026-17.573.1-.554.185-1.117.271-1.661q.059-.374.119-.748L63.4,4.078Zm-9.347,7.2h0l-.371.277-.636.475-6.1,4.574c-9.243,6.933-18.8,14.1-28.243,21.174a.782.782,0,0,0-.351,1.091c.752,1.986,1.484,4.017,2.191,5.981q.394,1.095.79,2.187L22.5,50.226l.017.046,1.023,2.816c.053-.14.1-.258.137-.36l0-.005h0c.075-.2.13-.337.177-.48q.457-1.377.91-2.756c.76-2.3,1.544-4.686,2.348-7.017a5.3,5.3,0,0,1,1.018-1.759c6.7-7.546,13.513-15.2,20.106-22.6l.186-.209L53.682,12c.118-.132.232-.272.341-.407l.156-.191-.125-.122ZM60.231,3.98l-.213.089c-.138.057-.28.115-.417.181Q31.337,17.788,3.075,31.328c-.07.034-.141.066-.211.1a3.366,3.366,0,0,0-.588.314.475.475,0,0,0-.244.384.5.5,0,0,0,.3.374,1.529,1.529,0,0,0,.391.138c.053.013.106.027.157.042l3.106.915.008,0c3.305.973,6.723,1.978,10.079,2.986a1.6,1.6,0,0,0,.459.077,1.235,1.235,0,0,0,.767-.294C28.25,28.135,39.383,19.784,50.15,11.707L54.157,8.7l6.13-4.6-.028-.061Z" transform="translate(0 0.065)" fill="#523de6"/>
      </g>
      <path id="Fill_4" data-name="Fill 4" d="M.9,10C.579,9.774.178,9.627.058,9.372a1.429,1.429,0,0,1,.074-.95c.052-.164.3-.285.466-.409Q5.815,4.218,11.038.428A2.9,2.9,0,0,1,11.524.12a.988.988,0,0,1,1.242.237.833.833,0,0,1-.007,1.163,2.256,2.256,0,0,1-.444.358Q7.125,5.654,1.927,9.424A10.942,10.942,0,0,1,.9,10" transform="translate(2 43)" fill="#ffd876"/>
      <path id="Fill_6" data-name="Fill 6" d="M14,.8a4.157,4.157,0,0,1-.679.845Q7.625,5.679,1.9,9.674A1.172,1.172,0,0,1,.231,9.638C-.164,9.207-.05,8.623.556,8.2,4.342,5.532,8.127,2.864,11.943.232a1.9,1.9,0,0,1,1.271-.2C13.5.089,13.7.493,14,.8" transform="translate(2 50)" fill="#ffd876"/>
      <path id="Fill_8" data-name="Fill 8" d="M8,.9a4.161,4.161,0,0,1-.568.865Q4.555,4.249,1.643,6.688A.912.912,0,0,1,.2,6.613,1.1,1.1,0,0,1,.445,5.1C2.368,3.45,4.29,1.8,6.248.2A1.271,1.271,0,0,1,7.321.06C7.588.152,7.753.574,8,.9" transform="translate(10 53)" fill="#ffd876"/>
    </g>
    <g id="Group_3-2" data-name="Group 3" transform="translate(28 1)">
      <path id="Fill_1-2" data-name="Fill 1" d="M0,40.866,36.849,0,37,.059c-.143.874-.278,1.749-.43,2.622q-1.757,10.092-3.519,20.183-1.876,10.748-3.753,21.5-.748,4.285-1.49,8.572c-.184,1.072-.627,1.315-1.619.83Q13.355,47.478.523,41.187C.36,41.107.212,41,0,40.866" fill="#523de6"/>
    </g>
    <g id="Group_3-3" data-name="Group 3" transform="translate(1 3)">
      <path id="Fill_1-3" data-name="Fill 1" d="M57.234,0s-3.3,2.214-5.337,3.762Q33.546,17.726,15.2,31.7a1.2,1.2,0,0,1-1.222.219C9.606,30.586,5.223,29.286.844,27.977A2.457,2.457,0,0,1,.3,27.8c-.366-.215-.407-.509-.055-.766C.482,26.854,57.234,0,57.234,0Z" transform="matrix(1, 0.017, -0.017, 1, 1.275, 0.501)" fill="#ffd876"/>
    </g>
  </g>
</svg>
