<svg id="Page-1" xmlns="http://www.w3.org/2000/svg" width="30.096" height="30.096" viewBox="0 0 30.096 30.096">
  <g id="_010---Secure-Password" data-name="010---Secure-Password">
    <path id="Shape" d="M29.5,23.612A1.612,1.612,0,0,0,27.885,22H9.612A1.612,1.612,0,0,0,8,23.612v3.225H29.5Zm-18.272.537H10.15v1.075a.537.537,0,0,1-1.075,0V23.612a.537.537,0,0,1,.537-.537h1.612a.537.537,0,1,1,0,1.075Z" transform="translate(-3.701 -10.177)" fill="#593fe9"/>
    <path id="Shape-2" data-name="Shape" d="M8,50.225a1.612,1.612,0,0,0,1.612,1.612H27.885A1.612,1.612,0,0,0,29.5,50.225V47H8Z" transform="translate(-3.701 -21.741)" fill="#593fe9"/>
    <path id="Shape-3" data-name="Shape" d="M29.558,33H.537A.537.537,0,0,0,0,33.537v5.374a.537.537,0,0,0,.537.537H29.558a.537.537,0,0,0,.537-.537V33.537A.537.537,0,0,0,29.558,33ZM5.135,36.852a.537.537,0,1,1-.6.894l-.777-.518v.608a.537.537,0,0,1-1.075,0v-.608l-.777.518a.537.537,0,1,1-.6-.894l.943-.628L1.314,35.6a.537.537,0,1,1,.6-.894l.777.518v-.608a.537.537,0,1,1,1.075,0v.608l.777-.518a.537.537,0,1,1,.6.894l-.943.628Zm5.912,0a.537.537,0,1,1-.6.894l-.777-.518v.608a.537.537,0,0,1-1.075,0v-.608l-.777.518a.537.537,0,1,1-.6-.894l.943-.628L7.227,35.6a.537.537,0,1,1,.6-.894l.775.518v-.608a.537.537,0,1,1,1.075,0v.608l.777-.518a.537.537,0,1,1,.6.894l-.943.628Zm5.912,0a.537.537,0,1,1-.6.894l-.777-.518v.608a.537.537,0,0,1-1.075,0v-.608l-.777.518a.537.537,0,1,1-.6-.894l.943-.628-.942-.628a.537.537,0,1,1,.6-.894l.775.518v-.608a.537.537,0,1,1,1.075,0v.608l.777-.518a.537.537,0,0,1,.6.894l-.943.628Zm5.912,0a.537.537,0,1,1-.6.894l-.777-.518v.608a.537.537,0,0,1-1.075,0v-.608l-.777.518a.537.537,0,1,1-.6-.894l.943-.628-.942-.628a.537.537,0,1,1,.6-.894l.775.518v-.608a.537.537,0,1,1,1.075,0v.608l.777-.518a.537.537,0,1,1,.6.894l-.943.628Zm5.613,1.522H25.259a.537.537,0,1,1,0-1.075h3.225a.537.537,0,1,1,0,1.075Z" transform="translate(0 -15.265)" fill="#593fe9"/>
    <path id="Shape-4" data-name="Shape" d="M15.15,8.061a5.912,5.912,0,1,1,11.823,0v2.687h2.15V8.061A8.061,8.061,0,1,0,13,8.061v2.687h2.15Z" transform="translate(-6.013)" fill="#593fe9"/>
  </g>
</svg>
