<svg xmlns="http://www.w3.org/2000/svg" width="19.674" height="9.01" viewBox="0 0 19.674 9.01">
  <g id="Layer_37" data-name="Layer 37" transform="translate(-2.536 -18.497)">
    <path id="Path_11" data-name="Path 11" d="M22.1,19.309a.5.5,0,1,0-.787-.621c-.04.053-4.1,5.148-8.949,5.148s-8.909-5.095-8.949-5.148a.5.5,0,0,0-.7-.083c-.714.524.844,1.768,2.442,3.226l-1.4,1.4a.5.5,0,0,0,.354.854c.294.1,1.625-1.488,1.845-1.635a11.43,11.43,0,0,0,5.912,2.369v2.185a.5.5,0,1,0,1,0V24.821a11.4,11.4,0,0,0,5.912-2.369c.23.157,1.548,1.735,1.845,1.635a.5.5,0,0,0,.354-.854l-1.4-1.4A17.841,17.841,0,0,0,22.1,19.309Z"/>
  </g>
</svg>
