<svg width="26" height="26" viewBox="0 0 26 26" fill="none" xmlns="http://www.w3.org/2000/svg">
<path fill-rule="evenodd" clip-rule="evenodd" d="M2.29098 0.100526C1.74039 0.244706 1.34205 0.478269 0.907637 0.911469C0.627716 1.19064 0.474141 1.39677 0.334587 1.68061C-0.025042 2.41223 -0.00903926 2.02174 0.00625222 9.687L0.0200196 16.5793L0.168819 17.0053C0.430451 17.7547 1.02839 18.4402 1.69583 18.7562C2.31923 19.0512 2.38542 19.06 4.1477 19.081L5.78608 19.1006V18.0812V17.0618L4.37631 17.0615C3.54936 17.0613 2.8872 17.0392 2.77467 17.0079C2.52493 16.9386 2.23779 16.6834 2.12146 16.4274C2.03428 16.2355 2.02889 15.9697 2.02783 11.8182L2.02671 7.41252H13H23.9733L23.9722 11.8182C23.9711 15.9697 23.9657 16.2355 23.8785 16.4274C23.7622 16.6834 23.4751 16.9386 23.2253 17.0079C23.1132 17.0391 22.4583 17.0613 21.6491 17.0615L20.2647 17.0618V18.0812V19.1007L21.8777 19.0822C23.452 19.0642 23.5 19.0606 23.8801 18.9328C24.8116 18.6198 25.5072 17.9279 25.8375 16.9856L25.98 16.5793L25.9937 9.687C26.009 2.02174 26.025 2.41223 25.6654 1.68061C25.5259 1.39677 25.3723 1.19064 25.0924 0.911469C24.6517 0.471971 24.2574 0.243487 23.689 0.0981393C23.3044 -0.000181393 23.0924 -0.00211124 12.9792 0.000631175C2.98799 0.00332281 2.65 0.00652229 2.29098 0.100526ZM23.5008 2.19091C23.635 2.27968 23.7532 2.42025 23.84 2.59445C23.9658 2.84675 23.9733 2.90404 23.9733 3.61356V4.36539H13H2.02671L2.02722 3.6163C2.02767 2.93502 2.0386 2.84381 2.14833 2.60826C2.27107 2.34479 2.47946 2.15434 2.72732 2.07918C2.80302 2.05627 7.46169 2.04134 13.0799 2.04607L23.2949 2.05465L23.5008 2.19091ZM3.44917 9.95179V10.9675H10.1551H16.861V9.95179V8.93608H10.1551H3.44917V9.95179ZM11.984 17.9882V22.1142L10.6124 20.7439L9.24094 19.3735L8.5293 20.0836L7.81766 20.7936L10.4213 23.3968L13.025 26L15.6286 23.3977L18.2322 20.7954L17.5346 20.0966C17.1509 19.7123 16.8139 19.3979 16.7858 19.3979C16.7577 19.3979 16.123 20.009 15.3754 20.756L14.016 22.1142V17.9882V13.8623H13H11.984V17.9882Z" fill="#593FE9"/>
</svg>
