<svg id="Group_4" data-name="Group 4" xmlns="http://www.w3.org/2000/svg" width="70" height="70" viewBox="0 0 70 70">
  <g id="Group_7" data-name="Group 7">
    <circle id="Oval" cx="35" cy="35" r="35" fill="#fff"/>
    <g id="Group_6" data-name="Group 6" transform="translate(10 13)">
      <g id="Group_3" data-name="Group 3">
        <g id="Group_5" data-name="Group 5">
          <path id="Fill_1" data-name="Fill 1" d="M42.486,41.951H5.577a1.3,1.3,0,0,1-1.482-1.495V36.173c0-5.145,0-10.466.007-15.7a.5.5,0,0,0-.308-.515A6.871,6.871,0,0,1,0,13.987a1.71,1.71,0,0,1,.237-.969C3.034,8.1,5.177,4.326,7.186.77A1.4,1.4,0,0,1,8.513,0c5.129,0,10.332,0,15.466,0S34.315,0,39.444,0A1.4,1.4,0,0,1,40.772.77c2.079,3.671,4.533,8,6.975,12.267a2.215,2.215,0,0,1,.186,1.465A6.872,6.872,0,0,1,44.108,20a.43.43,0,0,0-.248.461c0,6.587,0,13.284,0,19.761v.036c0,.035,0,.07,0,.105a3.979,3.979,0,0,1-.017.48,1.239,1.239,0,0,1-1.206,1.1C42.589,41.95,42.537,41.951,42.486,41.951ZM16.329,25.279l-1.541,0a1.558,1.558,0,0,0-1.655,1.663c0,4.06,0,8.17,0,12.144,0,.074,0,.149.009.222,0,.034,0,.068.006.1h6.528c0-.035,0-.066.007-.1,0-.055.008-.1.008-.148q0-1.84,0-3.681v-.031c0-2.8,0-5.7,0-8.556a1.546,1.546,0,0,0-1.636-1.618C17.494,25.28,16.915,25.279,16.329,25.279ZM6.646,20.741V39.409H10.6V36.018q0-4.51,0-9.019a4.084,4.084,0,0,1,4.225-4.244h3.142a4.085,4.085,0,0,1,4.243,4.258q0,3.988,0,7.976v4.42H41.318V20.739h-.077a7.023,7.023,0,0,1-5.9-2.942,6.866,6.866,0,0,1-5.669,2.925h-.009A6.884,6.884,0,0,1,23.994,17.8a6.9,6.9,0,0,1-5.675,2.924h-.009A6.893,6.893,0,0,1,12.626,17.8a7.057,7.057,0,0,1-5.887,2.945Zm30.1-6.046c.115,1.725,2.091,3.429,4.066,3.505.064,0,.128,0,.191,0a4.383,4.383,0,0,0,4.33-3.509Zm-22.72-.013a3.421,3.421,0,0,0,1.349,2.385A4.689,4.689,0,0,0,18.2,18.2h.091c2.108,0,4.159-1.675,4.3-3.515Zm-11.371,0a4.328,4.328,0,0,0,4.258,3.508,4.345,4.345,0,0,0,4.335-3.508H2.653Zm22.72,0a4.343,4.343,0,0,0,4.319,3.51h.1a4.582,4.582,0,0,0,2.793-1.1,3.625,3.625,0,0,0,1.369-2.407ZM9.411,2.532h0a.468.468,0,0,0-.473.276C7.626,5.137,6.29,7.494,5,9.773l-1.188,2.1c-.03.052-.055.105-.085.168l-.046.1H44.291c-.018-.037-.034-.071-.05-.1-.028-.059-.052-.11-.08-.159L42.937,9.715C41.643,7.436,40.306,5.081,39,2.761a.421.421,0,0,0-.445-.225l-13.065,0c-5.872,0-11.129,0-16.071,0Z" transform="translate(0 0)" fill="#ff9a6f"/>
          <path id="Fill_4" data-name="Fill 4" d="M6.555,11.375c-1.057,0-2.131,0-3.193,0A3.27,3.27,0,0,1,0,8.065C0,6.483,0,4.879,0,3.3A3.257,3.257,0,0,1,3.342,0l1.29,0H8.465L9.73,0a3.271,3.271,0,0,1,3.359,3.306c0,1.859,0,3.374,0,4.768a3.255,3.255,0,0,1-3.34,3.3C8.686,11.374,7.612,11.375,6.555,11.375ZM6.513,8.9H9.645a.805.805,0,0,0,.926-.9q0-2.309,0-4.617c0-.614-.294-.9-.923-.9h-6.2c-.63,0-.924.287-.925.9v.017c0,1.508,0,3.067,0,4.6a.8.8,0,0,0,.923.905H6.513Z" transform="translate(24.436 22.701)" fill="#ff9a6f"/>
        </g>
      </g>
    </g>
  </g>
</svg>
