<svg xmlns="http://www.w3.org/2000/svg" width="32.834" height="30.244" viewBox="0 0 32.834 30.244">
  <g id="renew" transform="translate(-0.001 -0.004)">
    <path id="Path_6" data-name="Path 6" d="M30.855,247.222a.962.962,0,0,0-1.069.841,13.221,13.221,0,0,1-25.859,1.947l1.149.631A.962.962,0,0,0,6,248.956L3.05,247.334a.962.962,0,0,0-1.306.379L.12,250.662A.962.962,0,0,0,.5,251.968a1,1,0,0,0,1.307-.379l.378-.686A15.145,15.145,0,0,0,31.7,248.292a.962.962,0,0,0-.841-1.069Zm0,0" transform="translate(0 -231.358)" fill="#593fe9"/>
    <path id="Path_7" data-name="Path 7" d="M58.927,8.218a.962.962,0,0,0-1.264.5l-.3.7a15.271,15.271,0,0,0-4.877-6.347A15.016,15.016,0,0,0,43.338,0,15.14,15.14,0,0,0,28.523,11.993a.962.962,0,1,0,1.882.4A13.223,13.223,0,0,1,55.718,10.5L54.5,9.977a.962.962,0,0,0-.76,1.767l3.094,1.331a.961.961,0,0,0,1.264-.5l1.332-3.09a.962.962,0,0,0-.5-1.264Zm0,0" transform="translate(-26.674)" fill="#593fe9"/>
    <path id="Path_8" data-name="Path 8" d="M132.577,122.58l-2.844,4.633a.321.321,0,0,1-.287.178.317.317,0,0,1-.142-.034,1.158,1.158,0,0,0-1.553.524l-.171.345a1.159,1.159,0,0,0,.524,1.553l10.555,5.23a1.158,1.158,0,0,0,1.553-.524l.171-.345a1.159,1.159,0,0,0-.524-1.553.321.321,0,0,1-.145-.429l1.963-5.069a5.1,5.1,0,0,0-9.1-4.509Zm0,0" transform="translate(-119.284 -112.439)" fill="#593fe9"/>
    <path id="Path_9" data-name="Path 9" d="M225.531,349.178a1.524,1.524,0,0,0,1.82-.437l-2.575-1.276a1.461,1.461,0,0,0,.755,1.713Zm0,0" transform="translate(-210.308 -325.179)" fill="#593fe9"/>
    <path id="Path_10" data-name="Path 10" d="M306.125,83.457c.01-.019.021-.037.03-.056a1.365,1.365,0,0,0-.617-1.829,1.331,1.331,0,0,0-1.829.617c-.009.02-.017.039-.026.059a6.98,6.98,0,0,1,2.441,1.209Zm0,0" transform="translate(-284.208 -76.216)" fill="#593fe9"/>
  </g>
</svg>
